<svg width="368" height="420" viewBox="0 0 368 420" fill="none" xmlns="http://www.w3.org/2000/svg">
<g clip-path="url(#clip0_2_4)">
<path fill-rule="evenodd" clip-rule="evenodd" d="M143 125.705C143 183.695 190.01 230.705 248 230.705C305.99 230.705 353 183.695 353 125.705C353 67.7154 305.99 20.705 248 20.705C190.01 20.705 143 67.7154 143 125.705Z" fill="#E6FFF0"/>
<path fill-rule="evenodd" clip-rule="evenodd" d="M257.561 24.7084C260.867 23.7694 264.401 23.3594 267.773 24.0509C271.142 24.7424 274.33 26.63 276.035 29.4929C277.984 32.761 277.798 36.7594 277.56 40.5128C276.957 49.9168 276.355 59.3208 275.756 68.7224C275.588 71.3306 275.441 74.0479 276.5 76.4596C277.562 78.8688 280.222 80.851 282.905 80.3221C284.27 80.0528 285.421 79.1964 286.717 78.6966C288.01 78.1992 289.735 78.1798 290.546 79.2619C291.028 79.9048 291.049 80.7637 290.957 81.5522C290.561 85.029 288.307 88.2656 285.103 89.9615C286.988 89.0905 289.351 90.9077 289.382 92.9021C289.415 94.9013 287.728 96.6263 285.784 97.3711C283.843 98.1136 281.686 98.0869 279.595 98.0481C281.317 98.0748 282.646 99.8338 282.476 101.471C282.306 103.107 280.954 104.473 279.366 105.113C277.781 105.754 275.995 105.78 274.28 105.628C270.634 105.305 266.995 104.186 264.122 102.017C259.104 98.2276 257.071 91.7593 257.002 85.6501C256.931 79.5409 258.522 73.5384 259.416 67.4899C261.487 53.4542 259.792 39.1905 258.097 25.1111C258.512 24.9923 258.921 24.8734 259.332 24.7545" fill="#FF7081"/>
<path fill-rule="evenodd" clip-rule="evenodd" d="M139.011 259.772C139.552 263.237 143.198 270.568 147.036 271.58C149.079 272.121 150.597 270.793 152.185 269.713C155.072 267.752 157.92 265.745 160.774 263.741C161.811 263.01 162.425 261.605 161.652 260.43C159.127 256.597 156.604 252.76 154.079 248.924C153.405 247.902 151.849 247.272 150.728 248.059C147.579 250.258 144.168 252.284 141.329 254.864C139.375 256.642 141.865 259.548 144.084 258.389C147.304 256.706 150.226 254.313 153.2 252.237C152.082 251.945 150.966 251.656 149.849 251.367C152.372 255.203 154.897 259.037 157.42 262.871C157.713 261.769 158.006 260.665 158.299 259.563C156.587 260.765 154.87 261.963 153.163 263.172C152.195 263.858 148.958 266.852 147.882 266.732C146.918 266.625 144.897 263.237 144.304 262.539C143.092 261.118 141.956 259.775 140.392 258.723C139.64 258.214 138.9 259.052 139.011 259.772Z" fill="#FBC580"/>
<path fill-rule="evenodd" clip-rule="evenodd" d="M358.882 70.106L358.539 69.8042C357.031 68.4735 354.559 68.2097 353.092 69.8042C351.61 71.4154 351.662 73.6278 353.092 75.239C353.194 75.3531 353.294 75.4648 353.396 75.5812C354.745 77.1021 357.524 77.057 358.882 75.5812C360.233 74.1126 360.506 71.539 358.882 70.106Z" fill="#241352"/>
<path fill-rule="evenodd" clip-rule="evenodd" d="M176.882 220.107C176.768 220.007 176.653 219.905 176.539 219.805C175.031 218.472 172.559 218.21 171.092 219.805C169.61 221.416 169.662 223.627 171.092 225.24C171.194 225.354 171.294 225.466 171.394 225.58C172.745 227.101 175.524 227.058 176.882 225.58C178.233 224.114 178.506 221.54 176.882 220.107Z" fill="#241352"/>
<path fill-rule="evenodd" clip-rule="evenodd" d="M232 93.4504L161.479 120.065L168.209 91.3954L149.869 86.705C149.869 86.705 130.141 142.751 143.842 144.248C167.827 146.876 204.121 137.314 204.121 137.314L232 93.4504Z" fill="#FFAFA7"/>
<path fill-rule="evenodd" clip-rule="evenodd" d="M207 154.644L207.155 209.31C224.936 231.439 286.84 202.823 286.84 202.823L287.562 180.466L289 127.212C287.574 106.006 268.116 95.5954 268.116 95.5954C260.074 91.54 247.807 89.2334 236.754 89.7862C225.217 90.3635 222.365 95.9574 217.612 106.615C213.773 115.227 207 123.304 207 154.644Z" fill="#241352"/>
<path fill-rule="evenodd" clip-rule="evenodd" d="M264.701 39.012L263.871 49.9628C263.871 49.9628 273.177 51.2198 270.524 59.7128C267.872 68.2058 261.505 64.4886 261.505 64.4886C261.505 64.4886 259.913 86.2553 237.634 79.3526C219.899 73.8613 220.984 50.8841 223.234 31.2958C224.108 23.707 231.281 18.4901 238.775 19.9505L252.17 22.5626C259.911 24.0696 265.299 31.1414 264.701 39.012Z" fill="#FFAFA7"/>
<path fill-rule="evenodd" clip-rule="evenodd" d="M265 58.705L258.897 91.1004C257.522 98.4007 250.288 103.069 243.029 101.347C236.303 99.7488 231.995 93.2093 233.203 86.4343L236.517 67.8663L265 58.705Z" fill="#FFAFA7"/>
<path fill-rule="evenodd" clip-rule="evenodd" d="M238.979 59.785C239.01 59.7775 239.07 60.2644 238.62 60.6201C238.151 60.9582 237.4 60.2518 237.206 59.1114C236.957 58.019 236.989 56.702 237.023 55.3649C237.07 53.9092 237.117 52.4711 237.167 50.9624C237.418 44.7207 237.809 39.6799 238.04 39.705C238.273 39.7253 238.256 44.8039 238.006 51.0456C237.935 52.5493 237.867 53.9874 237.797 55.4406C237.717 56.7929 237.642 57.961 237.776 58.849C237.873 59.7447 238.273 60.1685 238.535 60.1256C238.803 60.0777 238.922 59.722 238.979 59.785Z" fill="#241352"/>
<path fill-rule="evenodd" clip-rule="evenodd" d="M233.008 76.729C233.19 76.4077 237.556 79.4233 243.938 79.5251C250.321 79.6653 254.826 76.8149 254.993 77.1429C255.09 77.2561 254.131 78.1225 252.189 79.0229C250.268 79.9232 247.288 80.767 243.91 80.7014C240.532 80.6403 237.599 79.6857 235.721 78.7129C233.822 77.7402 232.906 76.8398 233.008 76.729Z" fill="#241352"/>
<path fill-rule="evenodd" clip-rule="evenodd" d="M237.027 64.4419C237.169 64.3245 237.664 64.748 238.567 65.1139C239.452 65.4845 240.829 65.7515 242.177 65.3372C243.525 64.9114 244.481 63.9194 244.975 63.1185C245.491 62.3129 245.639 61.6892 245.827 61.7053C245.974 61.7053 246.155 62.4096 245.767 63.4821C245.403 64.5247 244.336 65.9126 242.557 66.4788C240.769 67.0219 239.064 66.4972 238.142 65.8527C237.184 65.2014 236.905 64.527 237.027 64.4419Z" fill="#241352"/>
<path fill-rule="evenodd" clip-rule="evenodd" d="M265.026 59.4872C265.016 59.3254 265.384 59.2288 265.772 58.8969C265.965 58.7246 266.12 58.4956 266.174 58.1868C266.226 57.8653 266.154 57.6237 265.997 57.5607C265.853 57.4893 265.733 57.5544 265.717 57.5859L265 57.1027C265.564 55.6195 266.086 54.6111 266.261 54.712C266.437 54.8107 266.208 55.9914 265.739 57.5271L265.024 57.0439C265.295 56.4473 265.88 56.317 266.297 56.5376C266.605 56.6679 266.881 57.0754 266.951 57.4494C267.038 57.8338 266.999 58.2015 266.913 58.5019C266.738 59.1196 266.333 59.4746 266.028 59.5965C265.386 59.8402 265.026 59.6154 265.026 59.4872Z" fill="#241352"/>
<path fill-rule="evenodd" clip-rule="evenodd" d="M250.009 39.4893C249.893 39.2293 250.927 38.6813 252.251 39.0073C253.576 39.3273 254.188 40.2753 253.949 40.4493C253.716 40.6513 252.953 40.2393 251.966 40.0153C250.988 39.7613 250.104 39.7713 250.009 39.4893Z" fill="#241352"/>
<path fill-rule="evenodd" clip-rule="evenodd" d="M230.014 35.8791C229.859 35.6291 230.992 34.9631 232.597 35.0831C234.202 35.1971 235.178 36.0191 234.973 36.2431C234.782 36.4911 233.749 36.2011 232.488 36.1211C231.228 36.0151 230.153 36.1511 230.014 35.8791Z" fill="#241352"/>
<path fill-rule="evenodd" clip-rule="evenodd" d="M263.275 50.1149C257.188 44.001 255.4 33.8154 253.749 25.2249C248.113 29.4547 240.36 30.4942 233.861 27.8941C231.821 30.3634 229.425 32.5215 226.777 34.2722C226.024 34.771 225.13 35.2525 224.272 34.9858C223.251 34.6697 222.796 33.4623 222.554 32.3931C221.778 28.9658 221.749 25.2989 222.909 21.9901C224.069 18.6814 226.499 15.7726 229.684 14.5034C233.087 13.1453 236.919 13.7354 240.453 14.6787C245.776 16.101 250.907 18.2863 255.65 21.1506C260.308 23.9631 264.783 27.6818 266.757 32.8573C268.735 38.0304 268.725 48.0901 263.961 50.705" fill="#FF7081"/>
<path fill-rule="evenodd" clip-rule="evenodd" d="M228.444 93.9299C234.64 91.574 187 108.507 187 108.507L191.831 139.705L209.951 134.014L228.444 93.9299Z" fill="#241352"/>
<path fill-rule="evenodd" clip-rule="evenodd" d="M165.768 92.705C165.768 92.705 177.906 75.6143 175.742 75.6242C173.578 75.6316 172.449 78.8491 168.247 81.0511C168.247 81.0511 174.955 59.6803 172.879 60.1286C170.801 60.5769 165.852 74.2941 165.527 74.2792C165.202 74.2644 169.798 58.8951 168.074 58.7069C166.353 58.5186 162.131 72.8154 162.131 72.8154C162.131 72.8154 165.023 59.2245 163.198 58.9199C161.374 58.6152 158.681 71.136 158.681 71.136C158.681 71.136 160.833 60.6215 159.173 60.3639C158.162 60.2103 149 86.2898 149 86.2898C149.241 86.2898 165.768 92.705 165.768 92.705Z" fill="#FFAFA7"/>
<path fill-rule="evenodd" clip-rule="evenodd" d="M260.529 152.705C260.436 152.715 260.249 151.846 259.984 150.267C259.719 148.688 259.38 146.401 258.989 143.569C258.211 137.903 257.216 130.082 256.219 121.408C255.99 119.227 255.867 117.031 256.227 114.91C256.556 112.789 257.496 110.794 258.815 109.256C261.467 106.139 265.121 104.65 268.136 104.089C271.194 103.52 273.716 103.699 275.407 103.893C277.105 104.103 278.013 104.364 278 104.439C277.984 104.536 277.046 104.439 275.363 104.384C273.69 104.34 271.228 104.306 268.342 104.959C265.497 105.598 262.145 107.095 259.786 109.97C258.617 111.394 257.812 113.147 257.522 115.099C257.208 117.046 257.324 119.137 257.553 121.282C258.547 129.93 259.393 137.787 259.93 143.472C260.2 146.314 260.395 148.621 260.501 150.214C260.606 151.81 260.621 152.695 260.529 152.705Z" fill="#241352"/>
<path fill-rule="evenodd" clip-rule="evenodd" d="M258 149.8C258.036 149.464 266.351 150.045 276.566 151.097C286.784 152.149 295.036 153.275 295 153.611C294.964 153.944 286.654 153.366 276.434 152.312C266.218 151.261 257.964 150.136 258 149.8Z" fill="#241352"/>
<mask id="mask0_2_4" style="mask-type:luminance" maskUnits="userSpaceOnUse" x="110" y="8" width="94" height="54">
<path d="M110.025 8H203.397V61.7795H110.025V8Z" fill="#7E2E84"/>
</mask>
<g mask="url(#mask0_2_4)">
<path fill-rule="evenodd" clip-rule="evenodd" d="M203.397 10.7295V47.742H178.961L178.183 61.7795L163.824 46.9295H110.025L114.763 7.99951L203.397 10.7295Z" fill="#00964B"/>
</g>
<path fill-rule="evenodd" clip-rule="evenodd" d="M230.729 45.52C230.467 45.648 230.071 45.376 229.697 45.03C229.329 44.676 229.033 44.3 229.145 44.03C229.247 43.766 229.887 43.776 230.411 44.27C230.935 44.764 230.987 45.402 230.729 45.52Z" fill="#241352"/>
<path fill-rule="evenodd" clip-rule="evenodd" d="M249.831 46.6898C249.565 46.7871 249.103 46.4061 248.653 45.9146C248.207 45.4182 247.891 44.9482 248.079 44.7651C248.259 44.5837 248.959 44.8179 249.487 45.3984C250.015 45.979 250.091 46.5974 249.831 46.6898Z" fill="#241352"/>
<path fill-rule="evenodd" clip-rule="evenodd" d="M245.816 63.4828C246.278 65.3753 245.84 67.2321 244.836 67.6288C243.834 68.0282 242.645 66.8189 242.183 64.9263C241.723 63.0365 242.161 61.1798 243.165 60.7803C244.167 60.3837 245.356 61.593 245.816 63.4828Z" fill="#241352" fill-opacity="0.2"/>
<path fill-rule="evenodd" clip-rule="evenodd" d="M257 52.1647C257.012 54.0974 254.784 55.6833 252.023 55.7048C249.262 55.7263 247.014 54.178 247 52.2453C246.988 50.3127 249.216 48.7267 251.98 48.7052C254.739 48.6837 256.988 50.232 257 52.1647Z" fill="#241352" fill-opacity="0.15"/>
<path fill-rule="evenodd" clip-rule="evenodd" d="M235 53.1647C235.012 55.0974 232.784 56.6833 230.023 56.7048C227.262 56.7263 225.014 55.178 225 53.2453C224.988 51.3127 227.216 49.7267 229.98 49.7052C232.738 49.6837 234.988 51.232 235 53.1647Z" fill="#241352" fill-opacity="0.15"/>
<path fill-rule="evenodd" clip-rule="evenodd" d="M265.255 35.6854C265.15 35.5448 265.539 34.9851 265.185 33.9568C264.89 32.9631 263.994 31.5378 263.281 29.9079C261.773 26.6604 260.772 23.8887 261.045 23.7136C261.318 23.5386 262.774 26.0488 264.295 29.321C265.012 30.9855 265.784 32.3762 265.97 33.7571C266.059 34.4229 265.943 35.0393 265.72 35.3624C265.502 35.6879 265.301 35.7421 265.255 35.6854Z" fill="#6F35A5"/>
<path fill-rule="evenodd" clip-rule="evenodd" d="M212.184 141.491L208 196.085L266 203.705L262.075 140.705L212.184 141.491Z" fill="#7CABFF"/>
<path fill-rule="evenodd" clip-rule="evenodd" d="M215 104.105V146.705L222 144.257V95.705L215 97.6929" fill="#7CABFF"/>
<path fill-rule="evenodd" clip-rule="evenodd" d="M268.711 97.705C268.711 97.705 242.742 101.016 250.419 143.016L256.926 143.705C256.926 143.705 249.588 104.246 274 101.43L268.711 97.705Z" fill="#7CABFF"/>
<path fill-rule="evenodd" clip-rule="evenodd" d="M261.652 145.705C261.652 145.705 270.469 197.838 258.035 196.556C217.133 192.336 192.779 191.766 192.779 191.766L186 205.89C185.843 208.296 263.457 230.587 275.928 223.218C284.733 218.012 298.761 203.995 292.394 162.104L290.889 148.064L261.652 145.705Z" fill="#FFAFA7"/>
<path fill-rule="evenodd" clip-rule="evenodd" d="M283.455 111.605C283.455 111.605 292.891 120.822 295 155.705L258.482 151.595C258.482 151.595 252.397 92.1873 283.455 111.605Z" fill="#241352"/>
<path fill-rule="evenodd" clip-rule="evenodd" d="M197.355 192.337C197.355 192.337 177.227 186.056 177.916 188.122C178.606 190.186 182.034 190.265 185.458 193.595C185.458 193.595 162.953 193.837 164.038 195.682C165.12 197.526 179.765 197.989 179.854 198.302C179.944 198.618 163.832 199.009 164.196 200.714C164.558 202.421 179.528 202.004 179.528 202.004C179.528 202.004 165.653 203.472 165.935 205.31C166.222 207.15 179.015 205.825 179.015 205.825C179.015 205.825 168.307 207.041 168.585 208.706C168.755 209.721 199.935 209.953 200 210.699C200.034 211.088 197.355 192.337 197.355 192.337Z" fill="#FFAFA7"/>
<path fill-rule="evenodd" clip-rule="evenodd" d="M222.294 139.705C222.448 139.689 222.834 140.635 222.984 142.365C223.036 143.215 222.991 144.344 222.438 145.46C221.93 146.526 220.805 147.705 219.247 147.705C217.721 147.687 216.593 146.684 215.951 145.689C215.284 144.633 215.107 143.565 215.027 142.709C214.923 140.984 215.142 139.981 215.299 139.97C215.498 139.957 215.61 141.01 215.931 142.554C216.108 143.31 216.377 144.218 216.919 144.954C217.459 145.691 218.336 146.345 219.244 146.337C220.151 146.353 220.942 145.652 221.395 144.846C221.863 144.045 222.005 143.139 222.067 142.36C222.157 140.787 222.095 139.726 222.294 139.705Z" fill="#241352"/>
<path fill-rule="evenodd" clip-rule="evenodd" d="M219.528 142.087C219.595 142.189 219.517 142.382 219.606 142.607C219.725 142.866 219.839 142.928 220.055 142.794C220.258 142.641 220.245 142.507 220.058 142.296C219.891 142.125 219.686 142.125 219.621 142.024C219.536 141.949 219.777 141.605 220.298 141.733C220.533 141.8 220.832 141.982 220.96 142.384C221.095 142.799 220.874 143.293 220.524 143.516C220.19 143.76 219.661 143.783 219.34 143.495C219.024 143.219 218.977 142.866 219.008 142.617C219.091 142.075 219.491 141.98 219.528 142.087Z" fill="#241352"/>
<path fill-rule="evenodd" clip-rule="evenodd" d="M256.475 140.711C256.614 140.643 257.146 141.177 256.962 142.189C256.814 143.126 255.735 144.576 253.648 144.705C251.553 144.722 250.332 143.353 250.09 142.43C249.803 141.435 250.28 140.866 250.424 140.923C250.63 140.962 250.574 141.496 251.001 142.154C251.377 142.795 252.396 143.602 253.59 143.567C254.785 143.519 255.717 142.644 256.027 141.977C256.383 141.293 256.275 140.763 256.475 140.711Z" fill="#241352"/>
<path fill-rule="evenodd" clip-rule="evenodd" d="M254.136 137.436C254.066 137.293 254.282 136.72 254.849 136.705C255.117 136.708 255.482 136.866 255.76 137.451C256.06 138.018 256.082 139.108 255.806 139.772C255.574 140.479 254.984 140.967 254.498 140.552C254.004 140.085 253.97 139.286 254.014 138.807C254.059 138.29 254.257 137.907 254.428 137.816C254.601 137.728 254.688 137.842 254.696 137.933C254.694 138.152 254.544 138.386 254.629 138.848C254.75 139.386 254.847 139.403 255.07 138.95C255.268 138.45 255.08 138.024 254.758 137.769C254.46 137.544 254.2 137.623 254.136 137.436Z" fill="#241352"/>
<path fill-rule="evenodd" clip-rule="evenodd" d="M251.78 164.701C251.494 164.626 251.448 163.507 251.482 162.188C251.522 160.868 251.622 159.762 251.91 159.707C252.19 159.649 252.566 160.778 252.524 162.233C252.486 163.688 252.056 164.779 251.78 164.701Z" fill="#241352"/>
<path fill-rule="evenodd" clip-rule="evenodd" d="M247.04 173.649C246.876 173.396 247.24 172.464 247.734 171.422C248.233 170.383 248.706 169.567 248.915 169.725C249.12 169.873 248.956 171.024 248.411 172.163C247.87 173.301 247.197 173.899 247.04 173.649Z" fill="#241352"/>
<path fill-rule="evenodd" clip-rule="evenodd" d="M239.002 178.255C238.947 177.965 240.027 177.617 241.34 177.287C242.659 176.965 243.794 176.761 243.978 177.017C244.159 177.265 243.213 177.921 241.763 178.279C240.316 178.637 239.052 178.535 239.002 178.255Z" fill="#241352"/>
<path fill-rule="evenodd" clip-rule="evenodd" d="M228.018 177.087C228.182 176.825 229.316 176.989 230.638 177.271C231.96 177.559 233.04 177.879 232.999 178.171C232.965 178.453 231.719 178.587 230.272 178.273C228.826 177.963 227.854 177.341 228.018 177.087Z" fill="#241352"/>
<path fill-rule="evenodd" clip-rule="evenodd" d="M221.074 170.728C221.271 170.556 221.743 171.364 222.245 172.4C222.743 173.44 223.116 174.368 222.967 174.64C222.823 174.907 222.161 174.34 221.613 173.2C221.064 172.065 220.882 170.893 221.074 170.728Z" fill="#241352"/>
<path fill-rule="evenodd" clip-rule="evenodd" d="M219.988 160.706C220.278 160.744 220.422 161.846 220.506 163.165C220.584 164.489 220.572 165.612 220.288 165.7C220.014 165.79 219.554 164.718 219.468 163.268C219.376 161.816 219.706 160.666 219.988 160.706Z" fill="#241352"/>
<path fill-rule="evenodd" clip-rule="evenodd" d="M227 159.777C226.987 160.065 225.857 160.265 224.479 160.225C223.096 160.185 221.99 159.919 222 159.633C222.015 159.345 223.143 159.145 224.524 159.185C225.904 159.225 227.012 159.489 227 159.777Z" fill="#241352"/>
<path fill-rule="evenodd" clip-rule="evenodd" d="M237 159.777C236.987 160.065 235.857 160.265 234.476 160.225C233.096 160.187 231.988 159.921 232 159.633C232.013 159.345 233.143 159.145 234.524 159.185C235.904 159.225 237.012 159.489 237 159.777Z" fill="#241352"/>
<path fill-rule="evenodd" clip-rule="evenodd" d="M248 159.777C247.987 160.065 246.857 160.265 245.476 160.225C244.096 160.185 242.988 159.919 243 159.633C243.013 159.345 244.143 159.145 245.524 159.185C246.904 159.225 248.012 159.489 248 159.777Z" fill="#241352"/>
<mask id="mask1_2_4" style="mask-type:luminance" maskUnits="userSpaceOnUse" x="-3" y="217" width="211" height="210">
<path d="M-2.00839 217.352H207.222V426.705H-2.00839V217.352Z" fill="#E2D3F5"/>
</mask>
<g mask="url(#mask1_2_4)">
<path fill-rule="evenodd" clip-rule="evenodd" d="M207.222 322.028C207.222 379.839 160.384 426.707 102.607 426.707C44.8273 426.707 -2.00839 379.839 -2.00839 322.028C-2.00839 264.218 44.8273 217.352 102.607 217.352C160.384 217.352 207.222 264.218 207.222 322.028Z" fill="#E6FFF0"/>
</g>
<path fill-rule="evenodd" clip-rule="evenodd" d="M118 286.453L188.524 313.066L181.791 284.398L200.131 279.705C200.131 279.705 219.859 335.748 206.158 337.248C182.173 339.876 145.881 330.314 145.881 330.314L118 286.453Z" fill="#FFAFA7"/>
<path fill-rule="evenodd" clip-rule="evenodd" d="M142 349.644L141.845 404.31C124.064 426.439 62.1602 397.823 62.1602 397.823L61.4377 375.466L60 322.212C61.4256 301.005 80.8842 290.595 80.8842 290.595C88.9257 286.539 101.193 284.235 112.248 284.786C123.783 285.365 126.635 290.957 131.388 301.614C135.229 310.226 142 318.303 142 349.644Z" fill="#00964B"/>
<path fill-rule="evenodd" clip-rule="evenodd" d="M87.3482 338.705C87.3482 338.705 78.5307 390.839 90.9653 389.556C131.866 385.337 156.221 384.768 156.221 384.768L163 398.89C163.157 401.296 85.5433 423.586 73.0718 416.219C64.2666 411.013 50.2389 396.998 56.6064 355.107L58.1109 341.064L87.3482 338.705Z" fill="#FFAFA7"/>
<path fill-rule="evenodd" clip-rule="evenodd" d="M64.5451 305.606C64.5451 305.606 55.1088 314.825 53 349.705L89.5176 345.595C89.5176 345.595 95.6031 286.186 64.5451 305.606Z" fill="#00964B"/>
<path fill-rule="evenodd" clip-rule="evenodd" d="M82.2975 233.012L83.1277 243.963C83.1277 243.963 73.8217 245.218 76.4764 253.713C79.1286 262.206 85.4934 258.489 85.4934 258.489C85.4934 258.489 87.0852 280.254 109.368 273.353C127.101 267.86 126.016 244.884 123.766 225.296C122.891 217.707 115.718 212.49 108.225 213.951L94.8288 216.56C87.0877 218.07 81.7 225.142 82.2975 233.012Z" fill="#FFAFA7"/>
<path fill-rule="evenodd" clip-rule="evenodd" d="M84 251.705L90.106 284.1C91.4806 291.401 98.7121 296.069 105.971 294.347C112.697 292.749 117.005 286.212 115.797 279.434L112.483 260.866L84 251.705Z" fill="#FFAFA7"/>
<path fill-rule="evenodd" clip-rule="evenodd" d="M109.021 252.785C109.078 252.724 109.197 253.078 109.465 253.128C109.727 253.169 110.127 252.745 110.224 251.849C110.358 250.961 110.283 249.793 110.203 248.441C110.133 246.987 110.065 245.552 109.994 244.046C109.744 237.804 109.727 232.728 109.96 232.705C110.193 232.682 110.582 237.721 110.835 243.962C110.883 245.471 110.93 246.912 110.977 248.365C111.011 249.7 111.043 251.019 110.794 252.111C110.6 253.252 109.849 253.958 109.38 253.62C108.93 253.264 108.99 252.777 109.021 252.785Z" fill="#241352"/>
<path fill-rule="evenodd" clip-rule="evenodd" d="M116.992 271.729C117.096 271.84 116.177 272.74 114.279 273.712C112.401 274.684 109.467 275.638 106.089 275.702C102.712 275.765 99.7321 274.922 97.8109 274.022C95.8695 273.122 94.9102 272.256 95.0066 272.143C95.1767 271.815 99.6788 274.664 106.062 274.521C112.444 274.422 116.809 271.408 116.992 271.729Z" fill="#241352"/>
<path fill-rule="evenodd" clip-rule="evenodd" d="M110.973 256.442C111.095 256.527 110.816 257.201 109.858 257.853C108.933 258.497 107.231 259.022 105.443 258.479C103.663 257.915 102.595 256.525 102.232 255.482C101.846 254.41 102.025 253.705 102.175 253.705C102.362 253.689 102.51 254.313 103.023 255.121C103.52 255.919 104.476 256.911 105.821 257.337C107.172 257.751 108.546 257.484 109.433 257.114C110.334 256.748 110.831 256.324 110.973 256.442Z" fill="#241352"/>
<path fill-rule="evenodd" clip-rule="evenodd" d="M81.9741 254.487C81.9757 254.615 81.6141 254.84 80.9736 254.597C80.6688 254.473 80.2618 254.118 80.0883 253.5C80.0007 253.202 79.9618 252.835 80.0494 252.448C80.1191 252.074 80.3964 251.667 80.7028 251.539C81.1212 251.316 81.7065 251.449 81.9757 252.045L81.2606 252.526C80.792 250.991 80.5634 249.811 80.7385 249.712C80.9136 249.611 81.4357 250.621 82 252.102L81.2833 252.587C81.2671 252.553 81.1487 252.488 81.0028 252.56C80.8455 252.623 80.7742 252.866 80.8277 253.187C80.8796 253.494 81.0352 253.723 81.2282 253.897C81.6157 254.229 81.9838 254.326 81.9741 254.487Z" fill="#241352"/>
<path fill-rule="evenodd" clip-rule="evenodd" d="M99.9911 232.489C99.8962 232.771 99.0125 232.763 98.0339 233.015C97.0467 233.241 96.2815 233.651 96.0508 233.449C95.8116 233.275 96.4237 232.327 97.7472 232.007C99.0728 231.683 100.107 232.229 99.9911 232.489Z" fill="#241352"/>
<path fill-rule="evenodd" clip-rule="evenodd" d="M118.986 228.879C118.847 229.151 117.772 229.017 116.512 229.121C115.251 229.201 114.218 229.491 114.027 229.243C113.822 229.019 114.8 228.197 116.405 228.083C118.01 227.963 119.141 228.629 118.986 228.879Z" fill="#241352"/>
<path fill-rule="evenodd" clip-rule="evenodd" d="M85.7229 243.115C91.81 237.001 93.5977 226.815 95.2489 218.225C100.885 222.455 108.638 223.494 115.137 220.894C117.177 223.363 119.573 225.519 122.221 227.27C122.974 227.769 123.868 228.252 124.726 227.986C125.747 227.667 126.202 226.462 126.444 225.391C127.223 221.966 127.252 218.299 126.092 214.988C124.929 211.679 122.499 208.773 119.314 207.503C115.911 206.145 112.082 206.735 108.547 207.679C103.224 209.101 98.0936 211.286 93.3485 214.151C88.6897 216.961 84.2179 220.682 82.2408 225.855C80.2661 231.03 80.2757 241.088 85.0375 243.705" fill="#241352"/>
<path fill-rule="evenodd" clip-rule="evenodd" d="M120.556 286.93C114.362 284.574 162 301.507 162 301.507L157.167 332.705L139.047 327.014L120.556 286.93Z" fill="#00964B"/>
<path fill-rule="evenodd" clip-rule="evenodd" d="M151.645 384.336C151.645 384.336 171.774 378.057 171.083 380.122C170.392 382.188 166.965 382.264 163.543 385.597C163.543 385.597 186.044 385.839 184.962 387.683C183.88 389.526 169.233 389.989 169.144 390.304C169.058 390.62 185.165 391.011 184.804 392.716C184.44 394.42 169.471 394.006 169.471 394.006C169.471 394.006 183.345 395.472 183.063 397.312C182.778 399.152 169.986 397.827 169.986 397.827C169.986 397.827 180.693 399.044 180.413 400.706C180.243 401.724 149.065 401.953 149 402.699C148.966 403.091 151.645 384.336 151.645 384.336Z" fill="#FFAFA7"/>
<path fill-rule="evenodd" clip-rule="evenodd" d="M182.232 286.705C182.232 286.705 170.094 269.617 172.258 269.624C174.422 269.632 175.551 272.849 179.753 275.054C179.753 275.054 173.048 253.68 175.121 254.129C177.199 254.577 182.151 268.294 182.476 268.282C182.798 268.264 178.202 252.898 179.926 252.707C181.647 252.519 185.869 266.815 185.869 266.815C185.869 266.815 182.977 253.225 184.802 252.92C186.629 252.615 189.319 265.136 189.319 265.136C189.319 265.136 187.167 254.622 188.827 254.364C189.838 254.21 199 280.29 199 280.29C198.759 280.29 182.232 286.705 182.232 286.705Z" fill="#FFAFA7"/>
<path fill-rule="evenodd" clip-rule="evenodd" d="M71.4047 332.705C71.5343 332.692 71.976 333.425 72 334.884C71.9952 335.591 71.6855 336.616 70.7206 337.258C70.2597 337.577 69.5732 337.806 68.8627 337.66C68.1594 337.524 67.629 337.079 67.2449 336.689C66.4744 335.85 65.9703 335.354 65.1782 335.267C64.4221 335.155 63.738 335.392 63.2987 335.765C62.377 336.551 62.4058 337.457 62.2186 337.445C62.0938 337.519 61.6161 336.477 62.653 335.202C63.1595 334.593 64.1773 334.097 65.3102 334.199C65.8695 334.242 66.4672 334.43 66.9713 334.788C67.4633 335.135 67.8138 335.553 68.1594 335.897C69.4004 337.477 71.0303 335.933 71.1191 334.799C71.3159 333.598 71.2007 332.719 71.4047 332.705Z" fill="#FCF2FC"/>
<path fill-rule="evenodd" clip-rule="evenodd" d="M82.0087 323.819C81.9308 323.717 82.3653 322.962 83.6689 322.156C84.3088 321.778 85.3928 321.482 86.4625 321.931C86.9868 322.137 87.5441 322.582 87.7779 323.245C88.014 323.898 87.8841 324.576 87.7306 325.1C87.367 326.186 87.178 326.869 87.5039 327.571C87.7897 328.254 88.3564 328.692 88.9185 328.852C90.0945 329.185 90.8974 328.676 90.9848 328.835C91.1146 328.898 90.418 329.852 88.739 329.685C87.9314 329.597 86.9608 329.025 86.4743 328.036C86.2287 327.55 86.0918 326.957 86.1555 326.353C86.2169 325.757 86.4129 325.243 86.5452 324.773C87.3339 322.902 85.1117 322.388 84.0396 322.927C82.8612 323.411 82.1245 323.981 82.0087 323.819Z" fill="#FCF2FC"/>
<path fill-rule="evenodd" clip-rule="evenodd" d="M82.0087 300.82C81.9308 300.718 82.3653 299.963 83.6665 299.157C84.3065 298.779 85.3904 298.481 86.4625 298.932C86.9868 299.138 87.5441 299.581 87.7755 300.245C88.014 300.898 87.8841 301.577 87.7306 302.1C87.367 303.186 87.1757 303.869 87.5039 304.569C87.7897 305.254 88.3541 305.69 88.9161 305.852C90.0945 306.185 90.8974 305.676 90.9848 305.836C91.1147 305.898 90.418 306.852 88.7366 306.685C87.929 306.595 86.9608 306.023 86.4743 305.037C86.2287 304.55 86.0918 303.957 86.1532 303.351C86.2146 302.758 86.4129 302.244 86.5452 301.774C87.3339 299.903 85.1117 299.388 84.0396 299.928C82.8589 300.412 82.1245 300.982 82.0087 300.82Z" fill="#FCF2FC"/>
<path fill-rule="evenodd" clip-rule="evenodd" d="M103.505 330.693C103.406 330.777 102.582 330.427 101.63 329.256C101.18 328.678 100.775 327.671 101.144 326.613C101.313 326.098 101.724 325.53 102.393 325.252C103.051 324.97 103.766 325.035 104.324 325.139C105.486 325.39 106.214 325.514 106.912 325.144C107.598 324.814 107.999 324.239 108.118 323.688C108.362 322.539 107.758 321.819 107.917 321.722C107.973 321.594 109.026 322.176 109 323.787C108.98 324.564 108.473 325.536 107.489 326.085C107.006 326.36 106.404 326.541 105.767 326.532C105.143 326.523 104.592 326.38 104.092 326.295C102.075 325.701 101.741 327.861 102.396 328.836C103.005 329.917 103.662 330.569 103.505 330.693Z" fill="#FCF2FC"/>
<path fill-rule="evenodd" clip-rule="evenodd" d="M118.993 354.662C119.065 354.778 118.553 355.564 117.131 356.335C116.431 356.696 115.276 356.933 114.193 356.363C113.662 356.093 113.115 355.572 112.922 354.831C112.727 354.102 112.917 353.379 113.12 352.824C113.582 351.669 113.835 350.943 113.55 350.159C113.303 349.393 112.749 348.876 112.173 348.657C110.971 348.201 110.093 348.692 110.014 348.513C109.883 348.433 110.684 347.452 112.428 347.767C113.263 347.926 114.23 348.622 114.661 349.733C114.878 350.28 114.977 350.933 114.863 351.586C114.752 352.227 114.505 352.771 114.329 353.268C113.357 355.239 115.64 355.972 116.802 355.471C118.071 355.037 118.885 354.478 118.993 354.662Z" fill="#FCF2FC"/>
<path fill-rule="evenodd" clip-rule="evenodd" d="M138.993 316.662C139.067 316.778 138.553 317.564 137.131 318.335C136.431 318.696 135.276 318.933 134.193 318.363C133.661 318.093 133.115 317.572 132.922 316.831C132.727 316.105 132.917 315.379 133.12 314.824C133.582 313.669 133.834 312.943 133.55 312.159C133.303 311.393 132.749 310.876 132.173 310.657C130.971 310.201 130.093 310.695 130.014 310.513C129.883 310.433 130.686 309.452 132.427 309.767C133.263 309.926 134.23 310.622 134.66 311.733C134.878 312.28 134.977 312.933 134.863 313.586C134.752 314.227 134.505 314.771 134.329 315.268C133.357 317.239 135.64 317.972 136.802 317.471C138.071 317.037 138.884 316.478 138.993 316.662Z" fill="#FCF2FC"/>
<path fill-rule="evenodd" clip-rule="evenodd" d="M150.518 310.728C150.606 310.627 151.58 310.838 152.872 311.863C153.485 312.374 154.146 313.331 153.972 314.479C153.9 315.037 153.576 315.689 152.907 316.092C152.252 316.496 151.46 316.555 150.828 316.55C149.51 316.498 148.691 316.503 148.012 317.005C147.337 317.465 147.024 318.122 147.014 318.706C147 319.923 147.814 320.552 147.661 320.678C147.629 320.822 146.356 320.413 146.032 318.76C145.887 317.964 146.227 316.881 147.18 316.149C147.645 315.778 148.263 315.487 148.959 315.382C149.638 315.281 150.269 315.33 150.834 315.33C153.156 315.576 153.054 313.31 152.129 312.431C151.23 311.434 150.371 310.882 150.518 310.728Z" fill="#FCF2FC"/>
<path fill-rule="evenodd" clip-rule="evenodd" d="M98.9935 374.662C99.0652 374.778 98.5533 375.564 97.1313 376.335C96.4314 376.696 95.2765 376.933 94.1933 376.363C93.6616 376.093 93.115 375.569 92.9221 374.831C92.7268 374.102 92.9147 373.379 93.1175 372.824C93.5824 371.669 93.8347 370.944 93.5478 370.16C93.303 369.393 92.749 368.876 92.1728 368.657C90.9684 368.201 90.0905 368.692 90.0138 368.513C89.8827 368.43 90.684 367.452 92.425 367.767C93.2634 367.924 94.2304 368.622 94.6607 369.734C94.8783 370.281 94.9748 370.933 94.8635 371.586C94.7522 372.227 94.5049 372.771 94.3293 373.268C93.3574 375.239 95.64 375.972 96.7999 375.471C98.071 375.037 98.8846 374.478 98.9935 374.662Z" fill="#FCF2FC"/>
<path fill-rule="evenodd" clip-rule="evenodd" d="M126.985 336.697C126.883 336.772 126.15 336.305 125.396 334.953C125.043 334.289 124.785 333.175 125.257 332.099C125.479 331.572 125.931 331.019 126.593 330.802C127.243 330.583 127.908 330.737 128.419 330.911C129.478 331.317 130.145 331.531 130.846 331.223C131.529 330.951 131.976 330.391 132.152 329.825C132.517 328.634 132.035 327.802 132.198 327.72C132.266 327.588 133.184 328.326 132.967 330.032C132.855 330.853 132.264 331.823 131.275 332.285C130.789 332.52 130.202 332.641 129.604 332.554C129.022 332.475 128.52 332.256 128.063 332.106C126.241 331.24 125.668 333.49 126.168 334.599C126.609 335.817 127.148 336.582 126.985 336.697Z" fill="#FCF2FC"/>
<path fill-rule="evenodd" clip-rule="evenodd" d="M132.984 356.697C132.884 356.772 132.149 356.305 131.395 354.953C131.044 354.289 130.783 353.175 131.258 352.099C131.477 351.572 131.932 351.019 132.594 350.805C133.244 350.583 133.906 350.737 134.418 350.913C135.477 351.317 136.146 351.534 136.844 351.223C137.527 350.951 137.975 350.393 138.15 349.825C138.516 348.634 138.036 347.802 138.196 347.72C138.264 347.588 139.182 348.326 138.968 350.032C138.856 350.853 138.262 351.823 137.274 352.285C136.79 352.52 136.201 352.641 135.603 352.556C135.02 352.475 134.521 352.256 134.062 352.106C132.24 351.24 131.667 353.49 132.167 354.599C132.607 355.817 133.149 356.584 132.984 356.697Z" fill="#FCF2FC"/>
<path fill-rule="evenodd" clip-rule="evenodd" d="M93.2123 349.704C93.0877 349.687 92.8409 348.795 93.1477 347.209C93.3114 346.444 93.835 345.403 94.8823 344.926C95.3874 344.682 96.0817 344.59 96.716 344.911C97.3457 345.219 97.7402 345.823 98.0124 346.33C98.5452 347.413 98.905 348.067 99.627 348.342C100.314 348.633 101.006 348.531 101.505 348.226C102.545 347.585 102.723 346.598 102.898 346.65C103.032 346.601 103.241 347.838 101.982 348.986C101.369 349.53 100.303 349.836 99.2649 349.468C98.7482 349.294 98.2315 348.954 97.8394 348.454C97.4565 347.965 97.2212 347.433 96.9744 346.981C96.1694 344.99 94.2941 346.288 93.9527 347.5C93.4983 348.755 93.406 349.739 93.2123 349.704Z" fill="#FCF2FC"/>
<path fill-rule="evenodd" clip-rule="evenodd" d="M129.213 373.704C129.089 373.687 128.84 372.795 129.149 371.209C129.312 370.444 129.836 369.403 130.883 368.926C131.389 368.682 132.083 368.59 132.717 368.911C133.347 369.219 133.742 369.823 134.014 370.33C134.547 371.413 134.906 372.067 135.629 372.342C136.316 372.633 137.008 372.531 137.506 372.226C138.547 371.585 138.724 370.598 138.897 370.65C139.031 370.601 139.243 371.838 137.981 372.986C137.372 373.53 136.302 373.838 135.266 373.468C134.75 373.294 134.233 372.954 133.841 372.454C133.458 371.967 133.223 371.433 132.976 370.981C132.171 368.988 130.295 370.288 129.954 371.5C129.499 372.755 129.407 373.739 129.213 373.704Z" fill="#FCF2FC"/>
<path fill-rule="evenodd" clip-rule="evenodd" d="M127.213 299.704C127.089 299.689 126.84 298.794 127.149 297.208C127.31 296.443 127.836 295.401 128.883 294.924C129.389 294.683 130.083 294.591 130.717 294.909C131.347 295.217 131.742 295.821 132.014 296.331C132.547 297.415 132.906 298.068 133.629 298.342C134.316 298.635 135.008 298.533 135.506 298.228C136.547 297.586 136.724 296.597 136.897 296.649C137.031 296.599 137.243 297.84 135.981 298.986C135.372 299.533 134.302 299.838 133.266 299.468C132.75 299.294 132.233 298.956 131.841 298.454C131.458 297.967 131.223 297.432 130.976 296.982C130.171 294.989 128.295 296.289 127.954 297.502C127.499 298.757 127.407 299.739 127.213 299.704Z" fill="#FCF2FC"/>
<path fill-rule="evenodd" clip-rule="evenodd" d="M114.761 383.669C114.69 383.778 113.745 383.678 112.389 382.822C111.742 382.395 110.99 381.539 111 380.412C110.993 379.863 111.208 379.197 111.782 378.735C112.346 378.276 113.085 378.132 113.679 378.07C114.929 377.981 115.698 377.889 116.269 377.331C116.843 376.812 117.049 376.142 116.98 375.579C116.828 374.397 115.977 373.877 116.104 373.738C116.114 373.598 117.369 373.855 117.897 375.421C118.143 376.176 117.966 377.258 117.171 378.072C116.78 378.475 116.239 378.825 115.599 379.001C114.972 379.17 114.37 379.19 113.842 379.252C111.62 379.261 112.024 381.443 113.014 382.193C113.994 383.063 114.875 383.504 114.761 383.669Z" fill="#FCF2FC"/>
<path fill-rule="evenodd" clip-rule="evenodd" d="M72.1892 310.71C72.3049 310.65 73.0461 311.162 73.7208 312.514C74.0335 313.177 74.1985 314.257 73.5829 315.229C73.2923 315.707 72.7531 316.185 72.0217 316.324C71.3003 316.468 70.6034 316.258 70.0716 316.043C68.9734 315.556 68.279 315.288 67.4984 315.512C66.7375 315.702 66.2032 316.187 65.957 316.706C65.4448 317.795 65.8782 318.63 65.696 318.694C65.6123 318.81 64.6987 318.021 65.1025 316.427C65.3045 315.663 66.0358 314.806 67.1438 314.465C67.688 314.289 68.3307 314.232 68.9635 314.371C69.5791 314.504 70.0962 314.76 70.5739 314.948C72.4428 315.942 73.2825 313.873 72.8565 312.775C72.5044 311.581 72.002 310.801 72.1892 310.71Z" fill="#FCF2FC"/>
<path fill-rule="evenodd" clip-rule="evenodd" d="M114.188 303.71C114.307 303.648 115.045 304.163 115.72 305.514C116.033 306.178 116.2 307.257 115.582 308.229C115.294 308.705 114.752 309.185 114.021 309.322C113.3 309.469 112.603 309.256 112.071 309.043C110.975 308.556 110.281 308.286 109.498 308.51C108.737 308.7 108.203 309.187 107.957 309.706C107.447 310.795 107.878 311.63 107.698 311.694C107.612 311.81 106.699 311.019 107.103 309.427C107.304 308.663 108.038 307.806 109.144 307.465C109.688 307.287 110.333 307.232 110.963 307.371C111.581 307.504 112.096 307.76 112.573 307.948C114.444 308.943 115.282 306.873 114.856 305.773C114.504 304.579 114.001 303.801 114.188 303.71Z" fill="#FCF2FC"/>
<path fill-rule="evenodd" clip-rule="evenodd" d="M89.4703 345.705C89.3778 345.695 89.3932 344.81 89.4986 343.214C89.6039 341.62 89.7993 339.314 90.0692 336.472C90.6063 330.787 91.4545 322.93 92.4467 314.285C92.6754 312.137 92.7911 310.048 92.4775 308.099C92.1871 306.147 91.3826 304.394 90.2131 302.97C87.8536 300.095 84.5045 298.6 81.6567 297.959C78.7703 297.306 76.3105 297.338 74.6347 297.384C72.9512 297.439 72.0156 297.536 72 297.439C71.9848 297.367 72.8921 297.103 74.591 296.893C76.2848 296.699 78.8037 296.52 81.8649 297.089C84.8798 297.652 88.5347 299.139 91.1847 302.256C92.5032 303.797 93.4439 305.789 93.7755 307.91C94.1327 310.031 94.0094 312.224 93.7806 314.408C92.7834 323.082 91.7887 330.903 91.0099 336.569C90.6192 339.401 90.2799 341.688 90.0152 343.267C89.753 344.849 89.5628 345.715 89.4703 345.705Z" fill="#241352"/>
<path fill-rule="evenodd" clip-rule="evenodd" d="M90 344.8C90.0361 345.138 81.7817 346.261 71.5664 347.313C61.3487 348.368 53.0363 348.945 53 348.609C52.9639 348.274 61.2158 347.149 71.436 346.099C81.6489 345.044 89.9637 344.464 90 344.8Z" fill="#241352"/>
<path fill-rule="evenodd" clip-rule="evenodd" d="M180.726 358.788C181.045 356.596 180.983 354.51 182.17 352.577C184.536 348.726 187.893 349.692 191.144 351.388C194.457 353.114 197.575 354.149 201.177 352.536C206.801 350.017 209.442 341.244 204.074 337.116C202.336 335.779 200.623 337.986 200.858 339.674C201.182 342.036 202.314 344.634 200.359 346.662C197.745 349.373 194.68 347.097 192.071 345.88C189.255 344.565 186.259 344.274 183.352 345.491C178.348 347.583 174.718 354.602 178.691 359.343C179.253 360.013 180.593 359.711 180.726 358.788Z" fill="#3F51B5"/>
<path fill-rule="evenodd" clip-rule="evenodd" d="M141.482 345.705C141.224 345.688 140.986 339.688 140.48 332.251C139.972 324.802 140.2 318.686 140.518 318.705C140.776 318.72 141.012 324.719 141.52 332.159C142.026 339.605 141.8 345.724 141.482 345.705Z" fill="#241352"/>
<path fill-rule="evenodd" clip-rule="evenodd" d="M182 288.823L200.884 283.705L202 287.01L182.951 292.705L182 288.823Z" fill="#241352"/>
<path fill-rule="evenodd" clip-rule="evenodd" d="M193 287.706C193 288.811 192.104 289.705 191.001 289.705C189.896 289.705 189 288.811 189 287.706C189 286.601 189.896 285.705 191.001 285.705C192.104 285.705 193 286.601 193 287.706Z" fill="#E6E2EB"/>
<path fill-rule="evenodd" clip-rule="evenodd" d="M118.806 237.665C118.568 237.809 118.082 237.557 117.61 237.044C117.142 236.537 116.94 235.9 117.196 235.745C117.432 235.601 117.92 235.853 118.392 236.366C118.858 236.873 119.06 237.51 118.806 237.665Z" fill="#241352"/>
<path fill-rule="evenodd" clip-rule="evenodd" d="M103.806 239.665C103.568 239.809 103.082 239.557 102.61 239.044C102.142 238.537 101.94 237.9 102.196 237.745C102.432 237.601 102.92 237.853 103.39 238.366C103.858 238.873 104.06 239.51 103.806 239.665Z" fill="#241352"/>
<path fill-rule="evenodd" clip-rule="evenodd" d="M87 162.446V199.608H62.4002L61.6168 213.705L47.1609 198.794H-7L-2.23024 159.705L87 162.446Z" fill="#FBC580"/>
<path d="M144.529 22.456V24.584H142.629V35.205H139.912V28.061C139.836 28.0484 139.728 28.042 139.589 28.042C138.981 28.042 138.544 28.194 138.278 28.498C138.012 28.802 137.879 29.2897 137.879 29.961V31.196H135.162V29.923C135.162 28.8464 134.795 28.308 134.06 28.308C133.224 28.308 132.806 28.935 132.806 30.189C132.806 32.051 133.794 32.982 135.77 32.982C136.023 32.982 136.296 32.963 136.587 32.925V35.11C136.245 35.1607 135.871 35.186 135.466 35.186C133.845 35.186 132.553 34.73 131.59 33.818C130.627 32.906 130.146 31.6837 130.146 30.151C130.146 28.9097 130.463 27.9217 131.096 27.187C131.742 26.4524 132.635 26.085 133.775 26.085C134.535 26.085 135.149 26.2497 135.618 26.579C136.099 26.8957 136.397 27.2947 136.511 27.776C136.866 26.5473 137.841 25.933 139.437 25.933C139.551 25.933 139.709 25.9457 139.912 25.971V24.584H128.93V22.456H144.529ZM149.692 28.479H152.903V24.584H150.091V26.75C150.091 27.4214 149.958 27.9977 149.692 28.479ZM157.482 22.456V24.584H155.582V35.205H152.903V30.588H150.053C149.331 30.588 148.539 30.5374 147.678 30.436L151.231 35.205H148.001L144.334 30.094V28.232H145.683C146.848 28.232 147.431 27.7444 147.431 26.769V24.584H143.384V22.456H157.482ZM172.846 24.584H165.93V26.655C166.488 26.161 167.159 25.914 167.944 25.914C169.072 25.914 169.977 26.2687 170.661 26.978C171.358 27.6747 171.706 28.5677 171.706 29.657C171.706 30.835 171.314 31.7787 170.528 32.488C169.743 33.1847 168.736 33.533 167.507 33.533C167.317 33.533 167.172 33.5267 167.07 33.514V31.367C167.146 31.3797 167.248 31.386 167.374 31.386C167.894 31.386 168.293 31.2277 168.571 30.911C168.863 30.5944 169.008 30.189 169.008 29.695C169.008 29.239 168.875 28.8527 168.609 28.536C168.343 28.2067 167.957 28.042 167.45 28.042C167.007 28.042 166.64 28.2067 166.348 28.536C166.07 28.8527 165.93 29.277 165.93 29.809V35.205H163.232V33.001C162.688 33.4824 162.016 33.723 161.218 33.723C160.091 33.723 159.179 33.3747 158.482 32.678C157.798 31.9687 157.456 31.0694 157.456 29.98C157.456 28.802 157.849 27.8647 158.634 27.168C159.42 26.4587 160.427 26.104 161.655 26.104C161.833 26.104 161.978 26.1103 162.092 26.123V28.27C162.016 28.2574 161.915 28.251 161.788 28.251C161.269 28.251 160.864 28.4093 160.572 28.726C160.294 29.0427 160.154 29.448 160.154 29.942C160.154 30.398 160.287 30.7907 160.553 31.12C160.819 31.4367 161.206 31.595 161.712 31.595C162.156 31.595 162.517 31.4367 162.795 31.12C163.087 30.7907 163.232 30.36 163.232 29.828V24.584H156.335V22.456H172.846V24.584ZM158.918 38.815V35.889C159.628 36.6237 160.483 37.3014 161.483 37.922C162.484 38.5427 163.428 38.853 164.314 38.853C164.707 38.853 165.011 38.7644 165.226 38.587C165.442 38.4224 165.549 38.1944 165.549 37.903C165.549 37.6624 165.442 37.4724 165.226 37.333C165.011 37.1937 164.726 37.124 164.371 37.124C163.738 37.124 163.067 37.295 162.357 37.637V35.319C163.016 35.091 163.706 34.977 164.428 34.977C165.581 34.977 166.487 35.2367 167.145 35.756C167.804 36.288 168.133 37.0037 168.133 37.903C168.133 38.8024 167.804 39.5497 167.145 40.145C166.487 40.7404 165.575 41.038 164.409 41.038C163.358 41.038 162.345 40.8037 161.369 40.335C160.394 39.879 159.577 39.3724 158.918 38.815ZM178.007 28.479H181.218V24.584H178.406V26.75C178.406 27.4214 178.273 27.9977 178.007 28.479ZM185.797 22.456V24.584H183.897V35.205H181.218V30.588H178.368C177.646 30.588 176.854 30.5374 175.993 30.436L179.546 35.205H176.316L172.649 30.094V28.232H173.998C175.163 28.232 175.746 27.7444 175.746 26.769V24.584H171.699V22.456H185.797Z" fill="black"/>
<path d="M18.103 175.573H19.585L20.443 178.667C20.625 179.317 20.7853 179.924 20.924 180.487C21.0713 181.042 21.171 181.436 21.223 181.67L21.301 182.021C21.4137 181.25 21.6563 180.127 22.029 178.654L22.835 175.443H24.876L22.536 184.205H20.3L19.533 181.436C19.351 180.769 19.1993 180.205 19.078 179.746C18.9653 179.287 18.896 178.992 18.87 178.862L18.844 178.667C18.818 179.022 18.584 179.945 18.142 181.436L17.336 184.205H15.1L12.747 175.443H14.853L15.659 178.667C15.8323 179.36 15.9753 179.989 16.088 180.552C16.2007 181.107 16.27 181.492 16.296 181.709L16.348 182.021C16.4953 181.345 16.79 180.227 17.232 178.667L18.103 175.573ZM29.7081 180.305V180.149C29.6475 179.378 29.3095 178.992 28.6941 178.992C28.3908 178.992 28.1221 179.105 27.8881 179.33C27.6541 179.547 27.4981 179.872 27.4201 180.305H29.7081ZM31.0731 182.242V183.828C30.6225 184.123 29.9335 184.27 29.0061 184.27C27.9228 184.27 27.0778 183.958 26.4711 183.334C25.8731 182.701 25.5741 181.891 25.5741 180.903C25.5741 179.854 25.8645 179.035 26.4451 178.446C27.0345 177.848 27.7581 177.549 28.6161 177.549C29.5001 177.549 30.1978 177.809 30.7091 178.329C31.2205 178.84 31.4761 179.607 31.4761 180.63C31.4761 180.829 31.4415 181.172 31.3721 181.657H27.4981C27.6281 182.021 27.8535 182.303 28.1741 182.502C28.4948 182.701 28.8805 182.801 29.3311 182.801C29.9985 182.801 30.5791 182.615 31.0731 182.242ZM32.8958 184.205V175.014H34.7938V184.205H32.8958ZM38.0226 180.929C38.0572 181.51 38.2306 181.96 38.5426 182.281C38.8546 182.602 39.2662 182.762 39.7776 182.762C40.3236 182.762 40.8479 182.61 41.3506 182.307V183.893C40.8392 184.17 40.2239 184.309 39.5046 184.309C38.5166 184.309 37.7019 183.997 37.0606 183.373C36.4192 182.74 36.0986 181.926 36.0986 180.929C36.1159 179.941 36.4366 179.126 37.0606 178.485C37.6846 177.835 38.5382 177.51 39.6216 177.51C40.2889 177.51 40.8652 177.636 41.3506 177.887V179.512C40.8912 179.226 40.3799 179.083 39.8166 179.083C39.2879 179.083 38.8589 179.243 38.5296 179.564C38.2002 179.876 38.0312 180.331 38.0226 180.929ZM45.4293 184.309C44.398 184.309 43.6006 184.001 43.0373 183.386C42.474 182.762 42.1923 181.965 42.1923 180.994C42.1923 179.98 42.487 179.148 43.0763 178.498C43.6656 177.839 44.45 177.51 45.4293 177.51C46.452 177.51 47.245 177.826 47.8083 178.459C48.3716 179.092 48.6533 179.898 48.6533 180.877C48.6533 181.874 48.3673 182.697 47.7953 183.347C47.232 183.988 46.4433 184.309 45.4293 184.309ZM45.4163 179.005C45.0003 179.005 44.6883 179.183 44.4803 179.538C44.2723 179.893 44.1683 180.353 44.1683 180.916C44.1683 181.479 44.2723 181.943 44.4803 182.307C44.697 182.662 45.0176 182.84 45.4423 182.84C45.8583 182.84 46.166 182.667 46.3653 182.32C46.5733 181.965 46.6773 181.505 46.6773 180.942C46.6773 179.651 46.257 179.005 45.4163 179.005ZM51.7913 177.614V178.641C52.1553 177.913 52.7749 177.549 53.6503 177.549C54.5776 177.549 55.1929 177.965 55.4963 178.797C55.6436 178.407 55.8906 178.104 56.2373 177.887C56.5839 177.662 56.9913 177.549 57.4593 177.549C58.1093 177.549 58.6206 177.757 58.9933 178.173C59.3746 178.58 59.5653 179.183 59.5653 179.98V184.205H57.6673V180.292C57.6673 179.919 57.5936 179.625 57.4463 179.408C57.2989 179.191 57.0866 179.083 56.8093 179.083C56.5146 179.083 56.2503 179.204 56.0163 179.447C55.7909 179.681 55.6783 180.106 55.6783 180.721V184.205H53.7803V180.292C53.7803 179.919 53.7066 179.625 53.5593 179.408C53.4119 179.191 53.1996 179.083 52.9223 179.083C52.6276 179.083 52.3633 179.204 52.1293 179.447C51.9039 179.681 51.7913 180.106 51.7913 180.721V184.205H49.8933V177.614H51.7913ZM64.8742 180.305V180.149C64.8135 179.378 64.4755 178.992 63.8602 178.992C63.5568 178.992 63.2882 179.105 63.0542 179.33C62.8202 179.547 62.6642 179.872 62.5862 180.305H64.8742ZM66.2392 182.242V183.828C65.7885 184.123 65.0995 184.27 64.1722 184.27C63.0888 184.27 62.2438 183.958 61.6372 183.334C61.0392 182.701 60.7402 181.891 60.7402 180.903C60.7402 179.854 61.0305 179.035 61.6112 178.446C62.2005 177.848 62.9242 177.549 63.7822 177.549C64.6662 177.549 65.3638 177.809 65.8752 178.329C66.3865 178.84 66.6422 179.607 66.6422 180.63C66.6422 180.829 66.6075 181.172 66.5382 181.657H62.6642C62.7942 182.021 63.0195 182.303 63.3402 182.502C63.6608 182.701 64.0465 182.801 64.4972 182.801C65.1645 182.801 65.7452 182.615 66.2392 182.242Z" fill="black"/>
<path d="M322.782 99.626L321.675 102.991L321.653 102.983L321.654 103.056L317.459 101.676C316.716 101.432 316.256 101.579 316.079 102.118C315.906 102.643 316.344 103.077 317.393 103.422C319.126 103.992 320.281 104.703 320.856 105.554C321.451 106.395 321.547 107.428 321.145 108.651C320.814 109.656 320.146 110.389 319.139 110.849C318.147 111.313 317.046 111.347 315.837 110.949C314.847 110.623 314.033 110.13 313.395 109.468L312.705 111.565L309.646 110.559L311.457 105.053L314.297 105.988C314.319 106.56 314.503 107.08 314.849 107.549C315.195 108.018 315.66 108.348 316.242 108.54C316.636 108.669 317.009 108.663 317.362 108.521C317.721 108.364 317.959 108.104 318.079 107.74C318.161 107.492 318.167 107.276 318.099 107.092C318.049 106.899 317.932 106.739 317.747 106.614C317.568 106.474 317.385 106.366 317.201 106.289C317.035 106.202 316.815 106.113 316.538 106.022C313.406 104.992 312.192 103.407 312.897 101.265C313.275 100.115 313.966 99.3895 314.968 99.0898C315.971 98.79 317.113 98.8509 318.395 99.2725L319.4 99.6031L319.723 98.6199L312.426 96.2197L313.231 93.7726L319.872 95.9573C319.632 95.1679 319.638 94.3872 319.892 93.6152C320.285 92.4208 320.971 91.6374 321.949 91.265C322.931 90.878 323.976 90.8666 325.083 91.2307C326.146 91.5804 326.99 92.0595 327.613 92.668L326.679 95.5083C326.201 94.8508 325.518 94.3759 324.629 94.0836C324.236 93.9543 323.882 93.9751 323.567 94.1461C323.267 94.3218 323.06 94.5845 322.945 94.934C322.763 95.4875 322.78 96.1712 322.997 96.9849L326.099 98.0054L325.294 100.452L322.782 99.626Z" fill="#FBC580"/>
<path d="M322.428 165.517L321.623 167.964L319.438 167.246L315.421 179.459L312.319 178.439L314 173.326L312.711 172.902C312.134 173.971 311.283 174.716 310.16 175.138C309.041 175.545 307.776 175.564 306.363 175.197C305.082 174.775 304.02 174.127 303.177 173.253L304.09 170.478C304.933 171.449 305.9 172.114 306.993 172.474C307.736 172.718 308.361 172.706 308.869 172.437C309.396 172.159 309.77 171.684 309.991 171.014C310.187 170.417 310.163 169.877 309.919 169.393C309.689 168.914 309.261 168.571 308.635 168.365C307.965 168.145 307.264 168.068 306.532 168.133L307.387 165.533C308.08 165.487 308.871 165.61 309.759 165.902C310.954 166.295 311.858 166.883 312.472 167.666C313.101 168.454 313.398 169.367 313.363 170.405L314.805 170.879L316.336 166.225L305.237 162.575L306.042 160.128L322.428 165.517ZM321.266 172.762C321.027 172.263 320.995 171.745 321.173 171.206C321.35 170.667 321.681 170.275 322.164 170.031C322.668 169.777 323.189 169.738 323.728 169.916C324.267 170.093 324.656 170.431 324.895 170.929C325.154 171.418 325.195 171.932 325.018 172.471C324.841 173.01 324.5 173.406 323.997 173.66C323.513 173.905 323.002 173.938 322.463 173.761C321.924 173.584 321.525 173.251 321.266 172.762ZM318.887 179.994C318.648 179.495 318.617 178.977 318.794 178.438C318.971 177.899 319.302 177.507 319.786 177.263C320.289 177.009 320.81 176.97 321.349 177.147C321.888 177.325 322.277 177.663 322.517 178.161C322.776 178.65 322.817 179.164 322.639 179.702C322.462 180.241 322.122 180.638 321.619 180.892C321.135 181.136 320.623 181.17 320.084 180.993C319.545 180.815 319.146 180.482 318.887 179.994Z" fill="#FF7081"/>
<path d="M286.846 246.129C287.202 245.796 287.625 245.642 288.115 245.669C288.605 245.696 289.009 245.895 289.326 246.265C289.645 246.621 289.791 247.035 289.765 247.51C289.739 247.985 289.548 248.389 289.192 248.723C288.836 249.041 288.414 249.187 287.924 249.16C287.434 249.133 287.03 248.942 286.711 248.587C286.394 248.216 286.248 247.793 286.274 247.319C286.3 246.844 286.491 246.448 286.846 246.129ZM275.046 239.516L291.467 240.417L291.326 242.989L285.538 242.671L285.347 246.162L285.324 246.161L285.343 246.231L280.543 245.968C279.763 245.925 279.356 246.202 279.323 246.799C279.303 247.167 279.497 247.416 279.904 247.545C280.313 247.66 280.991 247.743 281.941 247.795C285.003 247.963 286.469 249.218 286.341 251.561C286.247 252.723 285.688 253.66 284.667 254.371C283.661 255.069 282.324 255.372 280.655 255.28C278.787 255.178 277.155 254.689 275.76 253.814L275.923 250.828C277.492 251.913 279.126 252.501 280.825 252.594C281.545 252.634 282.102 252.557 282.496 252.363C282.891 252.17 283.097 251.905 283.116 251.568C283.138 251.155 282.977 250.877 282.632 250.735C282.287 250.578 281.655 250.475 280.737 250.424C280.124 250.391 279.553 250.306 279.023 250.169C278.509 250.033 278.013 249.83 277.536 249.558C277.075 249.287 276.712 248.906 276.447 248.415C276.198 247.926 276.091 247.352 276.127 246.693C276.192 245.514 276.669 244.658 277.558 244.123C278.463 243.574 279.513 243.332 280.707 243.397L282.269 243.483L282.323 242.495L274.905 242.089L275.046 239.516Z" fill="#7CABFF"/>
<path d="M21.1958 312.529L19.845 323.614L21.9567 328.913L18.6664 330.224L16.5632 324.947L8.01318 317.782L11.859 316.25L13.5695 317.994C14.4567 318.895 15.2032 319.671 15.8088 320.321C16.4145 320.971 16.8054 321.393 16.9817 321.586L17.2248 321.886C17.1118 321.188 17.1254 319.4 17.2657 316.521L17.3714 314.053L21.1958 312.529Z" fill="#FBC580"/>
<path d="M46.0212 320.303C44.3262 320.978 42.8143 320.995 41.4854 320.353C40.1508 319.696 39.1656 318.57 38.5298 316.975C37.8657 315.308 37.805 313.748 38.3478 312.294C38.885 310.825 39.9583 309.77 41.5679 309.129C43.2486 308.459 44.7591 308.459 46.0994 309.13C47.4396 309.801 48.4305 310.941 49.072 312.551C49.7248 314.189 49.794 315.729 49.2797 317.172C48.7739 318.595 47.6877 319.639 46.0212 320.303ZM42.5257 311.594C41.842 311.867 41.4456 312.363 41.3365 313.083C41.2274 313.803 41.3573 314.626 41.7263 315.552C42.0953 316.478 42.5699 317.172 43.1502 317.634C43.739 318.076 44.3824 318.158 45.0804 317.88C45.7641 317.607 46.1562 317.121 46.2568 316.421C46.3659 315.701 46.2359 314.877 45.8669 313.952C45.0211 311.829 43.9074 311.043 42.5257 311.594Z" fill="#241352"/>
<path d="M274.877 288.108L289.136 291.673L288.511 294.172L286.012 293.547L285.03 297.474L280.389 296.314C279.6 296.117 278.916 296.167 278.336 296.465C277.771 296.766 277.401 297.266 277.226 297.965C277.047 298.679 277.109 299.287 277.41 299.789C277.715 300.276 278.195 300.602 278.849 300.766C280.247 301.115 281.251 300.576 281.861 299.148L284.941 299.918L283.328 306.366L280.204 305.585L280.902 302.796C280.537 303.116 280.032 303.306 279.385 303.365C278.756 303.413 278.174 303.371 277.639 303.237C276.181 302.872 275.126 302.127 274.476 301C273.829 299.858 273.678 298.595 274.024 297.212C274.385 295.769 275.16 294.722 276.35 294.071C277.555 293.424 279.065 293.328 280.88 293.781L282.464 294.178L282.821 292.75L274.253 290.607L274.877 288.108Z" fill="#241352"/>
<path d="M237.063 321.013L240.789 321.006L240.627 320.454C240.179 318.952 239.809 317.673 239.515 316.615C239.237 315.558 239.067 314.876 239.005 314.569L238.912 314.109C238.791 314.953 238.228 317.07 237.223 320.461L237.063 321.013ZM242.596 327.028L241.646 323.856L236.218 323.867L235.282 327.043L231.579 327.051L236.722 311.538L241.184 311.529L246.391 327.02L242.596 327.028Z" fill="#FBC580"/>
<path d="M32.7525 360.465L34.6904 363.624L33.7211 381.809L42.879 376.191L45.0837 379.784L30.5643 388.692L28.5552 385.417L29.5377 367.383L20.9594 372.646L18.7547 369.052L32.7525 360.465Z" fill="#FF7081"/>
<path d="M217.754 277.781L217.768 284.359C218.363 282.962 219.527 282.262 221.259 282.259C222.394 282.256 223.315 282.615 224.022 283.334C224.744 284.053 225.106 285.141 225.109 286.598L225.125 294.027L221.767 294.034L221.752 287.134C221.751 286.459 221.581 285.93 221.243 285.548C220.905 285.165 220.468 284.974 219.931 284.976C219.701 284.976 219.479 285.015 219.264 285.092C219.065 285.154 218.843 285.277 218.598 285.461C218.353 285.63 218.154 285.93 218.002 286.36C217.849 286.774 217.774 287.28 217.775 287.878L217.788 294.042L214.43 294.049L214.396 277.788L217.754 277.781Z" fill="#FF7081"/>
<path d="M54.8648 279.033L56.052 281.626L52.6224 283.197L57.8884 294.698L54.6469 296.182L49.381 284.681L45.9304 286.26L44.7432 283.667L54.8648 279.033Z" fill="#7CABFF"/>
<path d="M233.54 259.418L246.23 251.735L247.565 253.938L245.597 255.129L252.256 266.128L249.502 267.795L242.843 256.797L240.659 258.119L243.208 262.33C243.78 263.274 243.936 264.139 243.676 264.923C243.429 265.7 242.886 266.343 242.047 266.851C241.417 267.232 240.778 267.494 240.129 267.636L238.819 265.471C239.202 265.454 239.571 265.338 239.926 265.124C240.503 264.774 240.609 264.298 240.243 263.695L237.885 259.799L234.874 261.622L233.54 259.418Z" fill="#FF957E"/>
<path d="M135.839 179.557L137.173 181.76L135.206 182.952L141.865 193.95L139.071 195.641L136.307 191.077L134.202 192.351L134.285 192.489C134.921 193.538 135.076 194.609 134.752 195.702C134.441 196.787 133.577 197.758 132.16 198.616C131.203 199.195 130.223 199.591 129.222 199.803L127.674 197.245C128.783 197.183 129.764 196.894 130.617 196.377C131.771 195.678 132.015 194.778 131.348 193.676C131.093 193.257 130.753 193.006 130.327 192.923C129.914 192.833 129.353 193.002 128.645 193.431L127.838 193.919L126.432 191.598L127.042 191.228C128.131 190.569 128.429 189.833 127.937 189.02C127.46 188.233 126.763 188.117 125.845 188.673C125.176 189.078 124.586 189.659 124.077 190.416L122.564 187.917C123.056 187.279 123.741 186.694 124.62 186.161C125.879 185.399 127.024 185.1 128.056 185.264C129.079 185.415 129.893 185.989 130.496 186.986C130.909 187.668 131.086 188.359 131.025 189.059C130.965 189.758 130.663 190.399 130.118 190.979C130.716 190.724 131.297 190.633 131.86 190.704L134.949 188.834L132.412 184.643L130.897 185.56L129.563 183.357L135.839 179.557Z" fill="#FBC580"/>
<path d="M204.38 61.0458L205.714 63.2494L204.238 64.1428L205.68 66.5235C206.355 67.6384 206.548 68.6684 206.26 69.6136C205.977 70.5378 205.357 71.2897 204.399 71.8695C203.888 72.1792 203.421 72.3993 202.998 72.5299L201.687 70.3656C202.086 70.1957 202.332 70.083 202.424 70.0274C202.83 69.7812 203.072 69.5002 203.15 69.1843C203.22 68.8553 203.104 68.4416 202.802 67.9432L201.503 65.7987L197.824 68.0263L201.35 73.85C201.803 74.5976 202.404 75.0133 203.154 75.0971C203.917 75.1729 204.751 74.9369 205.656 74.3889C206.732 73.7377 207.63 72.8979 208.352 71.8694L209.865 74.3681C209.069 75.3337 208.075 76.1779 206.881 76.9006C205.241 77.8933 203.678 78.3019 202.192 78.1264C200.719 77.943 199.509 77.0708 198.564 75.51L195.05 69.7059L193.181 70.8376L191.847 68.634L204.38 61.0458Z" fill="#FF957E"/>
<path d="M202.444 251.049L203.468 252.741C203.384 252.04 203.502 251.376 203.823 250.752C204.149 250.106 204.673 249.565 205.394 249.128C206.417 248.509 207.404 248.333 208.355 248.6C209.297 248.854 210.126 249.571 210.84 250.751L214.76 257.224L211.887 258.964L208.289 253.022C207.932 252.432 207.524 252.069 207.066 251.934C206.6 251.786 206.118 251.863 205.62 252.165C205.095 252.482 204.783 252.958 204.683 253.592C204.588 254.206 204.79 254.925 205.291 255.752L208.483 261.024L205.611 262.764L199.571 252.789L202.444 251.049Z" fill="#FF7081"/>
<path d="M165.542 156.923L181.251 162.089L180.446 164.536L178.239 163.811L174.222 176.024L171.12 175.004L173.62 167.4L170.54 166.387C171.202 167.218 171.342 168.217 170.959 169.382C170.566 170.576 169.849 171.382 168.808 171.798C167.772 172.2 166.592 172.183 165.266 171.747C164.203 171.397 163.306 170.932 162.577 170.354L163.468 167.644C164.033 168.234 164.708 168.658 165.495 168.916C166.937 169.391 167.854 169.031 168.247 167.836C168.453 167.21 168.351 166.636 167.942 166.114C167.533 165.592 166.811 165.161 165.777 164.82L166.603 162.308L174.447 164.888L175.137 162.79L164.737 159.37L165.542 156.923ZM180.062 169.325C179.822 168.827 179.791 168.308 179.969 167.769C180.146 167.23 180.476 166.839 180.96 166.594C181.464 166.34 181.985 166.302 182.524 166.479C183.063 166.656 183.452 166.994 183.691 167.493C183.95 167.981 183.991 168.495 183.814 169.034C183.637 169.573 183.296 169.969 182.793 170.224C182.309 170.468 181.798 170.502 181.259 170.324C180.72 170.147 180.321 169.814 180.062 169.325ZM177.683 176.557C177.444 176.059 177.413 175.54 177.59 175.001C177.767 174.462 178.098 174.07 178.582 173.826C179.085 173.572 179.606 173.534 180.145 173.711C180.684 173.888 181.073 174.226 181.313 174.724C181.572 175.213 181.613 175.727 181.435 176.266C181.258 176.805 180.918 177.201 180.414 177.455C179.931 177.7 179.419 177.733 178.88 177.556C178.341 177.379 177.942 177.046 177.683 176.557Z" fill="#3F51B5"/>
</g>
<defs>
<clipPath id="clip0_2_4">
<rect width="367" height="419" fill="white" transform="translate(0.5 0.5)"/>
</clipPath>
</defs>
</svg>
