<svg width="331" height="304" viewBox="0 0 331 304" fill="none" xmlns="http://www.w3.org/2000/svg">
<g clip-path="url(#clip0_2_126)">
<mask id="mask0_2_126" style="mask-type:luminance" maskUnits="userSpaceOnUse" x="-1" y="0" width="330" height="288">
<path d="M-1 0H328.766V287.92H-1V0Z" fill="#E2D3F5"/>
</mask>
<g mask="url(#mask0_2_126)">
<path fill-rule="evenodd" clip-rule="evenodd" d="M82.7781 282.56C42.3835 268.976 7.34487 235.218 0.169541 193.304C-7.00579 151.39 19.4984 104.145 61.1436 95.059C80.835 90.7606 102.09 94.5999 120.902 87.3848C156.383 73.7773 168.441 27.7406 201.222 8.53987C232.804 -9.95709 276.104 3.38402 299.634 31.3807C323.161 59.3773 330.026 98.0083 328.585 134.511C326.466 188.139 303.618 245.975 254.847 268.651C213.749 287.759 126.857 293.175 82.7781 282.56Z" fill="#E6FFF0"/>
</g>
<path fill-rule="evenodd" clip-rule="evenodd" d="M34 273.312C42.9002 288.049 61.2374 293.581 77.9494 293.23C94.6592 292.878 110.999 287.898 127.685 286.888C154.13 285.292 180.046 293.669 206.041 298.976C232.038 304.281 260.451 306.174 283.635 292.824C289.311 289.557 294.788 285.094 297.086 278.775C299.384 272.458 297.307 264.072 291.326 261.461C289.008 260.451 286.429 260.388 283.916 260.338C228.223 259.263 172.53 258.188 116.837 257.11C88.4877 256.562 57.2363 257.065 35.9692 276.604" fill="#ADD9B4"/>
<path fill-rule="evenodd" clip-rule="evenodd" d="M50.6684 74.8444C47.2232 73.2964 42.9843 73.6541 39.8509 75.755C36.7175 77.856 34.7965 81.6307 34.9492 85.3881C35.0691 88.3238 36.2466 91.6649 34.3691 93.9349C32.9169 95.6868 30.3265 95.8515 28.2463 96.7882C24.2908 98.5661 22.3218 103.767 24.1208 107.696C25.0933 109.823 27.023 111.781 26.6545 114.088C26.4168 115.582 25.2241 116.763 23.9049 117.516C22.5835 118.266 21.1051 118.695 19.7379 119.359C14.7577 121.783 11.7333 127.413 11.875 132.925C12.019 138.436 15.0695 143.666 19.4436 147.054C23.8199 150.443 29.3976 152.089 34.9382 152.295C40.492 152.501 46.3009 151.206 50.5376 147.633C53.7189 144.949 55.7948 141.19 57.3255 137.332C60.2387 129.998 61.4183 121.991 60.7467 114.135C60.0468 105.983 57.3975 98.0826 56.8174 89.9217C56.6234 87.1877 56.6626 84.4168 56.0499 81.7434C55.4372 79.0701 54.0613 76.4272 51.7042 75.007" fill="#3A3A3A"/>
<path fill-rule="evenodd" clip-rule="evenodd" d="M49.4057 75.8999C52.5609 69.3781 58.8342 64.4326 65.9426 62.865C70.308 61.9024 75.0986 62.2276 78.9341 64.5128C82.7718 66.798 85.4233 71.2557 84.8389 75.6657C84.4769 78.3911 82.9898 80.8237 82.0457 83.4081C81.1015 85.9947 80.7919 89.1472 82.5472 91.272C84.1215 93.18 86.821 93.6504 88.971 94.8841C92.0411 96.649 93.9708 100.209 93.7681 103.73C93.5653 107.251 91.2365 110.568 87.9832 111.971C91.2147 112.344 94.2521 114.142 96.1208 116.787C97.9917 119.434 98.6633 122.883 97.9219 126.034C96.8578 130.548 93.1684 134.002 89.1999 136.441C83.6876 139.83 77.2943 141.794 70.8182 142.085C63.9453 142.395 56.3331 140.372 52.5936 134.628C50.1405 130.858 49.7655 126.153 49.4907 121.669C48.66 108.136 48.0908 94.5871 47.5217 81.0405C47.4301 78.8616 47.3407 76.6479 47.8575 74.5274" fill="#3A3A3A"/>
<path fill-rule="evenodd" clip-rule="evenodd" d="M72.5288 137.045L134.148 160.014L128.265 135.271L144.289 131.221C144.289 131.221 161.526 179.59 149.555 180.885C128.598 183.153 96.8895 174.901 96.8895 174.901L72.5288 137.045Z" fill="#3A3A3A" fill-opacity="0.5"/>
<path fill-rule="evenodd" clip-rule="evenodd" d="M67.1423 242.617C67.1423 242.617 141.583 161.825 191.837 179.463C242.091 197.103 263.309 279.391 263.309 279.391L223.282 278.745C223.282 278.745 191.671 216.595 176.246 219.002C160.819 221.413 113.179 280.568 113.179 280.568L67.1423 242.617Z" fill="#3A3A3A" fill-opacity="0.5"/>
<path fill-rule="evenodd" clip-rule="evenodd" d="M90.6936 193.569L93.7833 240.971C77.737 260.589 21.8746 235.226 21.8746 235.226L21.2226 215.407L19.9252 168.202C21.2117 149.404 38.7714 140.179 38.7714 140.179C46.0303 136.58 57.1007 134.537 67.0743 135.029C77.4862 135.539 80.0592 140.497 84.3483 149.944C87.8131 157.576 97.2176 170.01 90.6936 193.569Z" fill="#3A3A3A" fill-opacity="0.5"/>
<path fill-rule="evenodd" clip-rule="evenodd" d="M32.3151 244.156C32.3151 244.156 23.7719 278.734 49.8115 284.185C75.8511 289.633 171.623 276.884 196.568 279.066C221.513 281.242 292.454 285.36 292.454 285.36L297.648 244.297C297.648 244.297 187.251 239.035 174.774 242.12C162.297 245.201 32.3151 244.156 32.3151 244.156Z" fill="#3A3A3A" fill-opacity="0.5"/>
<path fill-rule="evenodd" clip-rule="evenodd" d="M44.7998 183.705C44.7998 183.705 36.9914 229.459 48.003 228.332C84.2233 224.628 105.791 224.13 105.791 224.13L111.794 236.523C111.933 238.635 43.2015 258.198 32.1572 251.73C24.3598 247.164 11.9374 234.862 17.5762 198.099L18.9085 185.775L44.7998 183.705Z" fill="#3A3A3A"/>
<path fill-rule="evenodd" clip-rule="evenodd" d="M77.4817 249.39L77.4075 246.323L122.869 239.939L134.936 197.982L185.297 196.767L171.708 242.181L77.4817 249.39Z" fill="#3A3A3A" fill-opacity="0.5"/>
<path fill-rule="evenodd" clip-rule="evenodd" d="M159.201 217.868C159.251 219.914 157.622 221.616 155.564 221.666C153.505 221.714 151.796 220.094 151.746 218.048C151.695 216.003 153.324 214.301 155.383 214.251C157.441 214.203 159.151 215.821 159.201 217.868Z" fill="#3A3A3A"/>
<path fill-rule="evenodd" clip-rule="evenodd" d="M160.693 217.832C160.763 220.698 158.482 223.079 155.6 223.148C152.717 223.217 150.323 220.949 150.253 218.083C150.183 215.217 152.464 212.836 155.347 212.769C158.229 212.7 160.624 214.967 160.693 217.832Z" fill="#3A3A3A"/>
<path fill-rule="evenodd" clip-rule="evenodd" d="M24.877 153.358C24.877 153.358 16.4275 161.424 14.5392 191.947L47.238 188.35C47.238 188.35 52.6871 136.364 24.877 153.358Z" fill="#3A3A3A"/>
<path fill-rule="evenodd" clip-rule="evenodd" d="M264.906 61.5719C264.906 61.5719 276.498 87.4552 279.729 86.0979C282.963 84.7428 312.899 66.2746 312.899 66.2746C312.899 66.2746 300.629 43.1015 298.076 41.7486C295.523 40.3978 264.906 61.5719 264.906 61.5719Z" fill="#3A3A3A" fill-opacity="0.5"/>
<path fill-rule="evenodd" clip-rule="evenodd" d="M298.076 41.7495C298.222 41.8037 297.369 44.4596 295.871 48.7049C294.375 52.9523 292.232 58.7911 289.803 65.2153C289.742 65.3735 289.681 65.5318 289.626 65.6793L289.463 66.1107L289.003 66.037C282.298 64.9508 276.262 63.91 271.907 63.1035C267.553 62.2969 264.88 61.7246 264.906 61.5728C264.93 61.421 267.647 61.7181 272.034 62.323C276.421 62.93 282.479 63.8428 289.186 64.9226L288.564 65.2825C288.619 65.135 288.678 64.9768 288.739 64.8185C291.17 58.3943 293.431 52.5989 295.121 48.4252C296.811 44.2493 297.93 41.6953 298.076 41.7495Z" fill="#3A3A3A"/>
<path fill-rule="evenodd" clip-rule="evenodd" d="M275.92 83.0584C275.615 82.9912 276.516 78.7395 277.933 73.5663C279.353 68.3909 280.744 64.2736 281.043 64.369C281.341 64.4644 280.441 68.7161 279.03 73.8633C277.619 79.0083 276.226 83.1256 275.92 83.0584Z" fill="#3A3A3A"/>
<path fill-rule="evenodd" clip-rule="evenodd" d="M310.923 61.1261C310.876 61.434 306.698 61.0329 301.593 60.2264C296.489 59.4242 292.391 58.5222 292.439 58.2143C292.49 57.9065 296.665 58.3076 301.772 59.1119C306.874 59.9163 310.971 60.8183 310.923 61.1261Z" fill="#3A3A3A"/>
<path fill-rule="evenodd" clip-rule="evenodd" d="M41.2532 89.3788L41.9924 99.0682C41.9924 99.0682 33.7065 100.18 36.0702 107.695C38.4316 115.21 44.0988 111.921 44.0988 111.921C44.0988 111.921 45.5161 131.178 65.3565 125.073C81.1456 120.214 80.1796 99.8834 78.1757 82.5513C77.3995 75.8366 71.0106 71.2206 64.3382 72.5128L52.4109 74.824C45.5183 76.1574 40.7212 82.4147 41.2532 89.3788Z" fill="#3A3A3A"/>
<path fill-rule="evenodd" clip-rule="evenodd" d="M41.9931 107.111L47.3397 135.455C48.5433 141.843 54.8755 145.928 61.2317 144.421C67.1212 143.022 70.8935 137.301 69.8359 131.373L66.9337 115.127L41.9931 107.111Z" fill="#3A3A3A"/>
<path fill-rule="evenodd" clip-rule="evenodd" d="M63.9377 107.431C64.014 107.377 64.1753 107.683 64.5373 107.724C64.8906 107.761 65.4291 107.396 65.56 106.627C65.7409 105.864 65.6406 104.86 65.5316 103.698C65.4379 102.449 65.3463 101.213 65.2503 99.9207C64.9124 94.5567 64.8906 90.1923 65.2045 90.1727C65.5185 90.1532 66.0462 94.4852 66.3842 99.8492C66.4496 101.146 66.5129 102.382 66.5761 103.633C66.6219 104.78 66.6655 105.913 66.3297 106.852C66.068 107.832 65.0541 108.439 64.4217 108.149C63.8156 107.843 63.8962 107.425 63.9377 107.431Z" fill="#3A3A3A"/>
<path fill-rule="evenodd" clip-rule="evenodd" d="M70.3739 123.095C70.4633 123.199 69.6739 124.064 68.0429 124.997C66.4293 125.927 63.9087 126.844 61.0064 126.902C58.1042 126.965 55.5442 126.157 53.8936 125.294C52.2255 124.431 51.4013 123.6 51.4841 123.492C51.6302 123.177 55.4984 125.907 60.9824 125.773C66.4664 125.677 70.2169 122.787 70.3739 123.095Z" fill="#3A3A3A"/>
<path fill-rule="evenodd" clip-rule="evenodd" d="M66.4982 111.407C66.6094 111.488 66.3543 112.123 65.4756 112.736C64.6274 113.343 63.0661 113.838 61.4264 113.324C59.7932 112.793 58.8141 111.485 58.4805 110.501C58.1273 109.493 58.2908 108.827 58.4282 108.829C58.6004 108.814 58.7356 109.402 59.2066 110.161C59.6624 110.913 60.5389 111.85 61.7731 112.251C63.0116 112.641 64.2719 112.389 65.0853 112.04C65.9117 111.696 66.3674 111.297 66.4982 111.407Z" fill="#3A3A3A"/>
<path fill-rule="evenodd" clip-rule="evenodd" d="M41.3692 108.635C41.3714 108.767 40.8851 108.999 40.0238 108.747C39.6117 108.619 39.0666 108.253 38.8333 107.618C38.7155 107.308 38.6632 106.928 38.781 106.532C38.8747 106.143 39.2476 105.725 39.6597 105.591C40.2223 105.363 41.0094 105.497 41.3736 106.113L40.4098 106.612C39.7796 105.025 39.4744 103.808 39.7099 103.704C39.9432 103.6 40.6453 104.643 41.4041 106.174L40.4403 106.673C40.4185 106.64 40.2593 106.571 40.0631 106.646C39.8516 106.709 39.7556 106.961 39.8276 107.293C39.8974 107.609 40.1089 107.845 40.3662 108.025C40.8873 108.368 41.3823 108.468 41.3692 108.635Z" fill="#3A3A3A"/>
<path fill-rule="evenodd" clip-rule="evenodd" d="M71.8836 95.0383C71.5784 95.1077 71.1728 94.4681 70.9765 93.6116C70.7825 92.7552 70.8741 92.0072 71.1793 91.9378C71.4846 91.8684 71.8902 92.508 72.0842 93.3645C72.2805 94.2209 72.1889 94.9689 71.8836 95.0383Z" fill="#3A3A3A"/>
<path fill-rule="evenodd" clip-rule="evenodd" d="M55.0857 96.5913C54.7826 96.6759 54.3443 96.0471 54.1045 95.1907C53.8646 94.3321 53.9169 93.5711 54.22 93.4865C54.5209 93.4041 54.9592 94.0307 55.1991 94.8893C55.4389 95.7457 55.3888 96.5067 55.0857 96.5913Z" fill="#3A3A3A"/>
<path fill-rule="evenodd" clip-rule="evenodd" d="M56.6456 89.5364C56.5497 89.8421 55.6557 89.8313 54.6657 90.1066C53.667 90.3495 52.893 90.7961 52.6597 90.5749C52.4176 90.3885 53.0369 89.3608 54.3779 89.0139C55.7145 88.6605 56.7634 89.2545 56.6456 89.5364Z" fill="#3A3A3A"/>
<path fill-rule="evenodd" clip-rule="evenodd" d="M73.7979 86.8327C73.6714 87.1276 72.688 86.9823 71.5367 87.0951C70.3832 87.1818 69.4391 87.4962 69.2646 87.2273C69.0771 86.9867 69.9711 86.0956 71.4386 85.972C72.9061 85.8397 73.9396 86.5639 73.7979 86.8327Z" fill="#3A3A3A"/>
<path fill-rule="evenodd" clip-rule="evenodd" d="M41.9931 99.0686C47.5315 93.7003 49.1582 84.7567 50.6606 77.2137C55.7891 80.9278 62.843 81.8406 68.7566 79.5575C70.6122 81.7256 72.7927 83.6206 75.2022 85.1556C75.889 85.5936 76.7002 86.0186 77.4808 85.7844C78.4097 85.5069 78.824 84.4467 79.0442 83.5057C79.7529 80.4985 79.779 77.2788 78.7237 74.3713C77.6683 71.4682 75.4551 68.9141 72.5572 67.7997C69.4609 66.6072 65.9764 67.1254 62.7602 67.9536C57.9173 69.2025 53.2488 71.1213 48.9314 73.6363C44.6925 76.1037 40.6237 79.371 38.8248 83.9133C37.028 88.4577 37.0368 97.2907 41.3694 99.5868" fill="#3A3A3A"/>
<path fill-rule="evenodd" clip-rule="evenodd" d="M64.5968 112.459C64.8628 113.987 63.5524 115.475 61.76 115.104C59.9676 114.716 59.381 112.829 60.2489 111.539C61.1145 110.232 62.2702 109.458 62.9396 109.579C63.6003 109.74 64.3417 110.915 64.5968 112.459Z" fill="#3A3A3A"/>
<path fill-rule="evenodd" clip-rule="evenodd" d="M57.6953 103.462C57.97 104.991 56.0708 106.608 53.4215 106.725C50.7722 106.849 48.7312 105.407 48.8686 103.861C49.0016 102.302 50.9248 101.194 53.1642 101.086C55.4036 100.99 57.4206 101.923 57.6953 103.462Z" fill="#3A3A3A"/>
<path fill-rule="evenodd" clip-rule="evenodd" d="M78.6731 101.76C78.9849 103.282 77.3212 104.901 74.9226 105.023C72.5219 105.146 70.7012 103.705 70.8538 102.159C71.0042 100.602 72.6963 99.4897 74.6304 99.3834C76.5667 99.2924 78.3634 100.225 78.6731 101.76Z" fill="#3A3A3A"/>
<path fill-rule="evenodd" clip-rule="evenodd" d="M41.7654 124.718C41.4471 124.711 41.2704 121.602 41.0698 117.784C40.8758 113.964 40.7297 110.855 41.0458 110.816C41.3511 110.775 42.0075 113.858 42.2037 117.726C42.4065 121.594 42.0729 124.727 41.7654 124.718Z" fill="#3A3A3A"/>
<path fill-rule="evenodd" clip-rule="evenodd" d="M74.6847 136.839C69.3229 134.72 110.565 149.945 110.565 149.945L106.381 177.996L90.694 172.88L74.6847 136.839Z" fill="#3A3A3A" fill-opacity="0.5"/>
<path fill-rule="evenodd" clip-rule="evenodd" d="M50.1433 73.3824C51.4407 71.4355 51.8681 68.9378 51.2903 66.6742C50.8149 64.8096 49.3998 62.9602 47.4679 62.8626C46.3711 62.8062 45.307 63.3374 44.5002 64.0811C42.5072 65.9154 41.9948 69.1459 43.3227 71.5005C44.6507 73.8551 47.6881 75.1061 50.3025 74.3755" fill="#3A3A3A"/>
<path fill-rule="evenodd" clip-rule="evenodd" d="M296.542 253.034C296.542 253.034 309.956 233.911 308.321 241.151C306.685 248.39 293.059 280.567 293.059 280.567L296.542 253.034Z" fill="#3A3A3A" fill-opacity="0.5"/>
<path fill-rule="evenodd" clip-rule="evenodd" d="M101.981 224.133C101.981 224.133 119.706 218.604 119.097 220.423C118.489 222.24 115.473 222.307 112.458 225.241C112.458 225.241 132.272 225.453 131.319 227.077C130.366 228.699 117.469 229.109 117.39 229.384C117.314 229.661 131.498 230.006 131.18 231.507C130.859 233.009 117.678 232.643 117.678 232.643C117.678 232.643 129.898 233.935 129.647 235.552C129.396 237.172 118.132 236.005 118.132 236.005C118.132 236.005 127.56 237.076 127.314 238.542C127.165 239.435 99.7084 239.637 99.6514 240.294C99.6212 240.639 101.981 224.133 101.981 224.133Z" fill="#3A3A3A"/>
<path fill-rule="evenodd" clip-rule="evenodd" d="M129.421 136.839C129.421 136.839 118.658 121.878 120.577 121.887C122.496 121.894 123.497 124.71 127.223 126.637C127.223 126.637 121.277 107.931 123.115 108.323C124.958 108.716 129.349 120.723 129.637 120.71C129.923 120.697 125.847 107.243 127.376 107.079C128.902 106.914 132.646 119.428 132.646 119.428C132.646 119.428 130.082 107.532 131.7 107.265C133.32 106.998 135.705 117.958 135.705 117.958C135.705 117.958 133.797 108.755 135.269 108.529C136.165 108.393 144.29 131.223 144.29 131.223C144.076 131.223 129.421 136.839 129.421 136.839Z" fill="#3A3A3A" fill-opacity="0.5"/>
<path fill-rule="evenodd" clip-rule="evenodd" d="M30.159 177.996C30.2768 177.985 30.678 178.694 30.6998 180.108C30.6954 180.793 30.4141 181.788 29.5376 182.408C29.1189 182.718 28.4953 182.94 27.8499 182.799C27.211 182.666 26.7291 182.235 26.3824 181.858C25.6803 181.045 25.2245 180.563 24.505 180.479C23.8159 180.37 23.1945 180.6 22.7955 180.962C21.9581 181.723 21.9843 182.601 21.8142 182.59C21.7008 182.662 21.2669 181.652 22.2089 180.416C22.669 179.826 23.5957 179.345 24.6227 179.444C25.1308 179.488 25.6737 179.668 26.1316 180.015C26.5786 180.351 26.897 180.756 27.211 181.09C28.3405 182.621 29.8189 181.127 29.8995 180.026C30.0783 178.863 29.9737 178.009 30.159 177.996Z" fill="#3A3A3A"/>
<path fill-rule="evenodd" clip-rule="evenodd" d="M39.8413 169.687C39.7694 169.593 40.1706 168.882 41.3742 168.13C41.9651 167.777 42.966 167.499 43.9538 167.918C44.4378 168.113 44.9524 168.527 45.1683 169.149C45.3864 169.76 45.2664 170.396 45.1247 170.886C44.7889 171.903 44.6145 172.542 44.9154 173.199C45.1792 173.839 45.7004 174.246 46.2215 174.396C47.3074 174.71 48.0488 174.231 48.1294 174.383C48.2494 174.441 47.6061 175.335 46.0558 175.179C45.31 175.096 44.4139 174.561 43.9647 173.635C43.7379 173.18 43.6114 172.625 43.6703 172.057C43.727 171.501 43.908 171.02 44.0301 170.58C44.7606 168.826 42.7065 168.347 41.7166 168.852C40.6285 169.305 39.9482 169.838 39.8413 169.687Z" fill="#3A3A3A"/>
<path fill-rule="evenodd" clip-rule="evenodd" d="M39.1876 148.986C39.1157 148.89 39.5169 148.181 40.7183 147.429C41.3092 147.076 42.3123 146.796 43.3001 147.217C43.7841 147.412 44.2987 147.826 44.5124 148.448C44.7326 149.059 44.6127 149.695 44.471 150.185C44.1352 151.202 43.9586 151.841 44.2617 152.496C44.5255 153.138 45.0466 153.545 45.5656 153.695C46.6537 154.009 47.395 153.53 47.4757 153.682C47.5956 153.74 46.9524 154.634 45.3999 154.478C44.6541 154.393 43.7601 153.858 43.311 152.934C43.0842 152.479 42.9577 151.924 43.0144 151.356C43.0711 150.8 43.2543 150.319 43.3764 149.879C44.1047 148.125 42.0528 147.646 41.0629 148.149C39.9726 148.604 39.2945 149.138 39.1876 148.986Z" fill="#3A3A3A"/>
<path fill-rule="evenodd" clip-rule="evenodd" d="M59.8333 175.947C59.7439 176.025 59.0003 175.689 58.1412 174.565C57.7356 174.01 57.3693 173.043 57.7029 172.027C57.8556 171.53 58.2263 170.984 58.8303 170.717C59.4233 170.446 60.0688 170.511 60.5725 170.609C61.6213 170.851 62.2776 170.971 62.9078 170.615C63.5271 170.296 63.889 169.744 63.9959 169.217C64.2161 168.111 63.671 167.419 63.8149 167.326C63.865 167.202 64.8157 167.762 64.7918 169.312C64.7743 170.058 64.3164 170.99 63.4289 171.517C62.9928 171.782 62.4499 171.955 61.8742 171.946C61.3117 171.94 60.8145 171.801 60.3631 171.719C58.5424 171.148 58.2415 173.226 58.8324 174.16C59.3819 175.201 59.975 175.827 59.8333 175.947Z" fill="#3A3A3A"/>
<path fill-rule="evenodd" clip-rule="evenodd" d="M73.9106 197.596C73.9739 197.696 73.5225 198.373 72.2687 199.038C71.6516 199.348 70.6333 199.55 69.6783 199.06C69.2095 198.83 68.7276 198.379 68.5575 197.742C68.3852 197.117 68.5531 196.493 68.7319 196.016C69.1397 195.023 69.3621 194.398 69.1114 193.724C68.8933 193.065 68.4049 192.62 67.8968 192.432C66.8371 192.039 66.063 192.464 65.9932 192.308C65.8777 192.239 66.5863 191.395 68.1214 191.666C68.8584 191.803 69.711 192.401 70.0904 193.358C70.2823 193.828 70.3695 194.39 70.2692 194.953C70.1711 195.502 69.953 195.97 69.7982 196.4C68.9413 198.093 70.9539 198.726 71.9787 198.292C73.0973 197.919 73.8147 197.438 73.9106 197.596Z" fill="#3A3A3A"/>
<path fill-rule="evenodd" clip-rule="evenodd" d="M90.4838 163.45C90.547 163.55 90.0957 164.229 88.8419 164.892C88.2248 165.2 87.2065 165.404 86.2514 164.914C85.7826 164.684 85.3007 164.233 85.1307 163.598C84.9584 162.971 85.1263 162.347 85.3051 161.87C85.7129 160.879 85.9353 160.254 85.6845 159.578C85.4665 158.919 84.978 158.474 84.47 158.286C83.4102 157.893 82.6362 158.316 82.5664 158.162C82.4508 158.093 83.1595 157.249 84.6946 157.52C85.4316 157.657 86.2841 158.255 86.6635 159.212C86.8576 159.682 86.9427 160.244 86.8424 160.807C86.7442 161.356 86.5262 161.824 86.3714 162.253C85.5144 163.949 87.527 164.578 88.5519 164.146C89.6705 163.773 90.3879 163.292 90.4838 163.45Z" fill="#3A3A3A"/>
<path fill-rule="evenodd" clip-rule="evenodd" d="M101.791 158.255C101.863 158.162 102.657 158.355 103.71 159.305C104.209 159.777 104.748 160.662 104.606 161.722C104.547 162.236 104.283 162.841 103.738 163.214C103.204 163.587 102.559 163.641 102.044 163.637C100.969 163.589 100.302 163.591 99.7479 164.055C99.1984 164.482 98.9433 165.089 98.9346 165.629C98.9237 166.755 99.5865 167.336 99.4622 167.453C99.4361 167.585 98.3982 167.208 98.1343 165.679C98.0166 164.942 98.2935 163.942 99.0697 163.264C99.4492 162.923 99.9529 162.655 100.52 162.557C101.074 162.464 101.588 162.509 102.048 162.507C103.941 162.737 103.858 160.643 103.104 159.829C102.371 158.906 101.673 158.399 101.791 158.255Z" fill="#3A3A3A"/>
<path fill-rule="evenodd" clip-rule="evenodd" d="M56.0473 215.253C56.1105 215.352 55.6591 216.029 54.4054 216.694C53.7883 217.002 52.77 217.206 51.8149 216.716C51.3461 216.484 50.8642 216.035 50.6941 215.398C50.5219 214.773 50.6898 214.149 50.8664 213.672C51.2763 212.679 51.4987 212.055 51.248 211.38C51.0299 210.721 50.5415 210.277 50.0334 210.088C48.9715 209.696 48.1975 210.121 48.1299 209.965C48.0143 209.895 48.7208 209.052 50.258 209.323C50.995 209.459 51.8476 210.058 52.227 211.014C52.4189 211.484 52.504 212.046 52.4058 212.61C52.3077 213.158 52.0897 213.627 51.9348 214.054C51.0779 215.749 53.0905 216.38 54.1132 215.949C55.2339 215.576 55.9513 215.094 56.0473 215.253Z" fill="#3A3A3A"/>
<path fill-rule="evenodd" clip-rule="evenodd" d="M80.5769 182.394C80.4788 182.461 79.7788 182.041 79.0593 180.822C78.7213 180.226 78.4749 179.22 78.9262 178.251C79.1377 177.776 79.5717 177.277 80.2018 177.082C80.8233 176.885 81.4578 177.024 81.9462 177.18C82.958 177.546 83.5947 177.739 84.2641 177.461C84.9161 177.216 85.3435 176.711 85.5114 176.202C85.8602 175.129 85.4002 174.378 85.555 174.305C85.6204 174.185 86.497 174.851 86.2898 176.388C86.183 177.128 85.6182 178.001 84.674 178.42C84.2096 178.63 83.6492 178.739 83.0779 178.663C82.5219 178.589 82.0422 178.394 81.6061 178.257C79.866 177.479 79.3187 179.504 79.7963 180.503C80.2171 181.6 80.7317 182.292 80.5769 182.394Z" fill="#3A3A3A"/>
<path fill-rule="evenodd" clip-rule="evenodd" d="M84.9793 200.048C84.8834 200.115 84.1812 199.695 83.4617 198.476C83.1259 197.88 82.8773 196.874 83.3309 195.905C83.5402 195.43 83.9741 194.933 84.6064 194.738C85.2279 194.539 85.8602 194.678 86.3487 194.836C87.3604 195.2 87.9993 195.395 88.6665 195.116C89.3185 194.871 89.7459 194.368 89.9138 193.856C90.2627 192.783 89.8048 192.035 89.9574 191.959C90.0228 191.842 90.8994 192.505 90.6944 194.042C90.5876 194.782 90.0206 195.655 89.0765 196.074C88.6142 196.286 88.0516 196.393 87.4804 196.317C86.9243 196.243 86.4468 196.048 86.0085 195.913C84.2685 195.133 83.7212 197.158 84.1987 198.157C84.6195 199.255 85.1363 199.946 84.9793 200.048Z" fill="#3A3A3A"/>
<path fill-rule="evenodd" clip-rule="evenodd" d="M49.477 192.517C49.3592 192.502 49.1259 191.723 49.4159 190.34C49.5707 189.672 50.0657 188.764 51.0557 188.347C51.5332 188.135 52.1895 188.055 52.7892 188.334C53.3844 188.603 53.7595 189.13 54.0146 189.572C54.5183 190.518 54.8585 191.088 55.541 191.329C56.1908 191.585 56.8449 191.493 57.3159 191.227C58.2993 190.667 58.4672 189.807 58.6329 189.852C58.7594 189.809 58.9578 190.891 57.7673 191.89C57.1894 192.365 56.1799 192.634 55.1986 192.311C54.7102 192.159 54.2218 191.864 53.8511 191.426C53.4891 191.001 53.2667 190.535 53.0334 190.141C52.2724 188.404 50.4996 189.538 50.1769 190.594C49.7474 191.689 49.6601 192.547 49.477 192.517Z" fill="#3A3A3A"/>
<path fill-rule="evenodd" clip-rule="evenodd" d="M81.5394 214.313C81.4216 214.297 81.1861 213.519 81.4783 212.136C81.6309 211.468 82.1281 210.559 83.118 210.143C83.5934 209.931 84.2519 209.85 84.8515 210.13C85.4468 210.399 85.8197 210.926 86.077 211.368C86.5807 212.313 86.9208 212.884 87.6033 213.124C88.2509 213.38 88.9073 213.289 89.3783 213.022C90.3617 212.463 90.5296 211.602 90.6931 211.648C90.8196 211.605 91.0202 212.686 89.8275 213.686C89.2496 214.161 88.24 214.43 87.261 214.107C86.7726 213.955 86.2841 213.66 85.9134 213.222C85.5515 212.797 85.3291 212.331 85.0958 211.936C84.3348 210.2 82.5598 211.333 82.2393 212.392C81.8097 213.484 81.7225 214.343 81.5394 214.313Z" fill="#3A3A3A"/>
<path fill-rule="evenodd" clip-rule="evenodd" d="M80.6098 148.284C80.4921 148.269 80.2566 147.488 80.5488 146.107C80.7014 145.439 81.1985 144.528 82.1885 144.114C82.6638 143.902 83.3224 143.822 83.922 144.101C84.5173 144.368 84.8901 144.897 85.1474 145.337C85.6511 146.285 85.9913 146.855 86.6738 147.096C87.3214 147.349 87.9777 147.26 88.4487 146.994C89.4321 146.434 89.6 145.574 89.7636 145.619C89.89 145.574 90.0907 146.655 88.8979 147.655C88.3201 148.132 87.3105 148.399 86.3315 148.078C85.843 147.924 85.3546 147.629 84.9839 147.193C84.6219 146.766 84.3995 146.3 84.1662 145.907C83.4052 144.169 81.6303 145.303 81.3098 146.361C80.8802 147.455 80.793 148.312 80.6098 148.284Z" fill="#3A3A3A"/>
<path fill-rule="evenodd" clip-rule="evenodd" d="M70.1353 223.078C70.0743 223.18 69.2631 223.085 68.0987 222.274C67.5427 221.868 66.8994 221.058 66.906 219.989C66.8994 219.471 67.0848 218.837 67.5798 218.399C68.0617 217.964 68.6962 217.829 69.2064 217.769C70.2792 217.684 70.9399 217.597 71.4327 217.068C71.9233 216.576 72.1 215.943 72.0411 215.407C71.9102 214.289 71.1798 213.794 71.2888 213.662C71.2975 213.53 72.3747 213.773 72.8282 215.258C73.0398 215.973 72.8893 216.999 72.2046 217.771C71.871 218.154 71.4066 218.486 70.8549 218.651C70.3163 218.814 69.7995 218.833 69.346 218.889C67.438 218.898 67.7847 220.967 68.6351 221.678C69.4768 222.504 70.2334 222.92 70.1353 223.078Z" fill="#3A3A3A"/>
<path fill-rule="evenodd" clip-rule="evenodd" d="M32.1075 158.255C32.21 158.197 32.8663 158.685 33.4638 159.966C33.7407 160.595 33.8868 161.616 33.3417 162.54C33.0866 162.991 32.6068 163.446 31.9592 163.578C31.3203 163.715 30.7033 163.513 30.2323 163.312C29.2598 162.85 28.6449 162.594 27.9536 162.806C27.2799 162.986 26.8067 163.448 26.5887 163.94C26.1351 164.972 26.5189 165.764 26.3575 165.824C26.2834 165.935 25.4744 165.185 25.832 163.676C26.0108 162.952 26.6584 162.139 27.6397 161.813C28.1215 161.649 28.6907 161.594 29.251 161.727C29.7962 161.852 30.2541 162.095 30.6771 162.273C32.3321 163.216 33.0757 161.254 32.6984 160.213C32.3866 159.079 31.9418 158.342 32.1075 158.255Z" fill="#3A3A3A"/>
<path fill-rule="evenodd" clip-rule="evenodd" d="M68.8128 151.722C68.9153 151.664 69.5717 152.152 70.1691 153.433C70.446 154.062 70.5921 155.085 70.047 156.007C69.7919 156.458 69.3122 156.913 68.6646 157.045C68.0257 157.182 67.4086 156.98 66.9376 156.778C65.9651 156.317 65.3502 156.061 64.659 156.273C63.9852 156.453 63.512 156.915 63.294 157.407C62.8404 158.439 63.2242 159.231 63.0628 159.291C62.9887 159.402 62.1797 158.654 62.5373 157.143C62.7161 156.419 63.3638 155.606 64.345 155.282C64.8269 155.116 65.396 155.061 65.9564 155.194C66.5015 155.319 66.9594 155.562 67.3824 155.74C69.0374 156.683 69.781 154.721 69.4038 153.68C69.0919 152.546 68.6471 151.809 68.8128 151.722Z" fill="#3A3A3A"/>
<path fill-rule="evenodd" clip-rule="evenodd" d="M46.1849 190.131C46.1064 190.122 46.1195 189.326 46.2089 187.897C46.2983 186.466 46.464 184.4 46.6929 181.85C47.1487 176.753 47.8682 169.711 48.7121 161.958C48.904 160.032 49.0021 158.159 48.7361 156.412C48.4897 154.662 47.8072 153.09 46.815 151.813C44.8133 149.235 41.9721 147.895 39.5561 147.321C37.1074 146.737 35.0207 146.766 33.599 146.805C32.1708 146.854 31.3771 146.943 31.3638 146.857C31.3509 146.789 32.1206 146.553 33.5619 146.367C34.9989 146.191 37.1358 146.033 39.7328 146.542C42.2905 147.045 45.3912 148.379 47.6393 151.176C48.7579 152.555 49.5559 154.341 49.8372 156.243C50.1403 158.144 50.0356 160.113 49.8416 162.068C48.9955 169.845 48.1517 176.857 47.491 181.937C47.1596 184.476 46.8717 186.529 46.6471 187.943C46.4247 189.361 46.2634 190.139 46.1849 190.131Z" fill="#3A3A3A"/>
<path fill-rule="evenodd" clip-rule="evenodd" d="M47.6404 188.358C47.673 188.668 40.2223 189.707 30.9965 190.676C21.7708 191.65 14.2655 192.185 14.2327 191.873C14.2001 191.565 21.6509 190.524 30.8788 189.555C40.1002 188.584 47.6076 188.046 47.6404 188.358Z" fill="#3A3A3A"/>
<path fill-rule="evenodd" clip-rule="evenodd" d="M93.0561 184.691C92.6833 184.656 94.4865 178.117 92.4281 170.327C90.4984 162.502 85.7754 157.613 86.0894 157.405C86.1766 157.318 87.474 158.385 89.0833 160.553C90.6925 162.708 92.5001 166.045 93.5293 170.05C94.5454 174.054 94.5563 177.844 94.1769 180.502C93.8019 183.171 93.1761 184.726 93.0561 184.691Z" fill="#3A3A3A" fill-opacity="0.5"/>
<path fill-rule="evenodd" clip-rule="evenodd" d="M229.525 71.4185C234.935 74.3195 240.864 77.1468 246.725 79.0222C248.572 79.6141 249.826 76.7543 248.06 75.8741C242.547 73.1249 236.337 71.0044 230.424 69.3003C229.168 68.9403 228.35 70.7876 229.525 71.4185Z" fill="#3A3A3A" fill-opacity="0.5"/>
<path fill-rule="evenodd" clip-rule="evenodd" d="M46.7508 70.9382C43.3098 69.3985 39.0761 69.7543 35.9465 71.8439C32.8169 73.9334 30.8983 77.6876 31.0507 81.4246C31.1705 84.3444 32.3465 87.6673 30.4714 89.9251C29.021 91.6674 26.4337 91.8313 24.356 92.7629C20.4054 94.5311 18.4388 99.7042 20.2355 103.612C21.2069 105.727 23.1342 107.674 22.7662 109.969C22.5288 111.454 21.3375 112.63 20.0199 113.378C18.7002 114.124 17.2236 114.551 15.8581 115.211C10.8839 117.622 7.86321 123.222 8.00477 128.703C8.1485 134.185 11.1953 139.386 15.5641 142.756C19.935 146.127 25.5059 147.763 31.0398 147.968C36.5868 148.173 42.3886 146.886 46.6201 143.332C49.7976 140.662 51.8709 136.923 53.3997 133.087C56.3093 125.792 57.4876 117.829 56.8168 110.016C56.1177 101.908 53.4716 94.0502 52.8923 85.9336C52.6985 83.2144 52.7377 80.4586 52.1257 77.7998C51.5137 75.141 50.1395 72.5123 47.7853 71.0999" fill="#241352"/>
<path fill-rule="evenodd" clip-rule="evenodd" d="M46.9248 70.7436C50.0324 64.1203 56.211 59.0978 63.2121 57.5059C67.5116 56.5283 72.2299 56.8585 76.0075 59.1793C79.7873 61.5001 82.3987 66.0272 81.8232 70.5058C81.4667 73.2735 80.002 75.744 79.0721 78.3687C78.1422 80.9955 77.8373 84.197 79.5661 86.3549C81.1166 88.2925 83.7753 88.7703 85.8929 90.0232C88.9167 91.8155 90.8173 95.431 90.6176 99.0069C90.4179 102.583 88.1242 105.952 84.92 107.376C88.1027 107.755 91.0943 109.58 92.9348 112.267C94.7775 114.955 95.4389 118.458 94.7087 121.658C93.6607 126.242 90.027 129.749 86.1184 132.227C80.6893 135.668 74.3925 137.663 68.0142 137.958C61.2449 138.273 53.7477 136.219 50.0646 130.386C47.6485 126.557 47.2791 121.779 47.0086 117.225C46.1903 103.481 45.6298 89.7216 45.0693 75.9642C44.9791 73.7513 44.891 71.5032 45.4 69.3498" fill="#241352"/>
<path fill-rule="evenodd" clip-rule="evenodd" d="M68 133.69L130.182 156.174L124.246 131.954L140.417 127.989C140.417 127.989 157.811 175.336 145.731 176.603C124.582 178.823 92.5834 170.745 92.5834 170.745L68 133.69Z" fill="#FFAFA7"/>
<path fill-rule="evenodd" clip-rule="evenodd" d="M64 237.9C64 237.9 137.997 156.815 187.953 174.517C237.908 192.221 259 274.807 259 274.807L219.211 274.159C219.211 274.159 187.788 211.783 172.455 214.199C157.119 216.618 109.763 275.989 109.763 275.989L64 237.9Z" fill="#00964B"/>
<path fill-rule="evenodd" clip-rule="evenodd" d="M86.9043 189.365L90 236.576C73.9228 256.114 17.9531 230.853 17.9531 230.853L17.2999 211.114L16 164.1C17.289 145.378 34.8823 136.19 34.8823 136.19C42.1552 132.605 53.2469 130.571 63.2397 131.061C73.6716 131.569 76.2495 136.507 80.5468 145.916C84.0183 153.517 93.4409 165.901 86.9043 189.365Z" fill="#FB8080"/>
<path fill-rule="evenodd" clip-rule="evenodd" d="M29.3377 239.103C29.3377 239.103 20.816 274.926 46.7898 280.573C72.7637 286.218 168.294 273.01 193.176 275.27C218.058 277.525 288.819 281.791 288.819 281.791L294 239.249C294 239.249 183.882 233.797 171.437 236.994C158.991 240.186 29.3377 239.103 29.3377 239.103Z" fill="#00964B"/>
<path fill-rule="evenodd" clip-rule="evenodd" d="M40.7539 178.989C40.7539 178.989 32.9162 225.185 43.9692 224.047C80.3258 220.308 101.974 219.804 101.974 219.804L108 232.317C108.14 234.449 39.1496 254.201 28.0638 247.671C20.237 243.061 7.76794 230.64 13.4279 193.522L14.7652 181.08L40.7539 178.989Z" fill="#FFAFA7"/>
<path fill-rule="evenodd" clip-rule="evenodd" d="M74.0742 244.989L74 241.841L119.508 235.291L131.587 192.235L182 190.989L168.397 237.591L74.0742 244.989Z" fill="#8BBF9D"/>
<path fill-rule="evenodd" clip-rule="evenodd" d="M155.999 214.891C156.053 217.098 154.305 218.934 152.097 218.988C149.889 219.039 148.055 217.293 148.001 215.085C147.947 212.88 149.695 211.044 151.903 210.99C154.111 210.939 155.945 212.683 155.999 214.891Z" fill="white"/>
<path fill-rule="evenodd" clip-rule="evenodd" d="M156.998 213.355C157.072 216.392 154.669 218.914 151.633 218.987C148.597 219.061 146.075 216.658 146.002 213.621C145.928 210.584 148.331 208.062 151.367 207.991C154.403 207.917 156.925 210.32 156.998 213.355Z" fill="white"/>
<path fill-rule="evenodd" clip-rule="evenodd" d="M21.297 148.402C21.297 148.402 12.8809 156.467 11 186.989L43.5698 183.392C43.5698 183.392 48.9973 131.409 21.297 148.402Z" fill="#FB8080"/>
<path fill-rule="evenodd" clip-rule="evenodd" d="M261 57.5618C261 57.5618 272.593 84.3399 275.825 82.9357C279.059 81.5338 309 62.4271 309 62.4271C309 62.4271 296.728 38.4529 294.175 37.0532C291.621 35.6558 261 57.5618 261 57.5618Z" fill="#B1EDC2"/>
<path fill-rule="evenodd" clip-rule="evenodd" d="M293.984 38.9899C294.129 39.041 293.281 41.5485 291.792 45.5564C290.304 49.5663 288.173 55.0787 285.758 61.1437C285.697 61.2931 285.636 61.4425 285.582 61.5817L285.419 61.9891L284.962 61.9195C278.294 60.894 272.293 59.9115 267.962 59.15C263.632 58.3885 260.974 57.8482 261 57.7049C261.024 57.5616 263.726 57.842 268.088 58.4131C272.451 58.9862 278.474 59.848 285.144 60.8674L284.526 61.2072C284.58 61.068 284.639 60.9185 284.699 60.7691C287.117 54.7041 289.366 49.2327 291.046 45.2923C292.726 41.35 293.839 38.9387 293.984 38.9899Z" fill="#002C68"/>
<path fill-rule="evenodd" clip-rule="evenodd" d="M272.068 79.9883C271.718 79.9236 272.75 75.8292 274.373 70.8475C275.999 65.8637 277.592 61.8988 277.934 61.9906C278.277 62.0825 277.245 66.1769 275.629 71.1335C274.014 76.0881 272.418 80.053 272.068 79.9883Z" fill="#002C68"/>
<path fill-rule="evenodd" clip-rule="evenodd" d="M307 56.9226C306.95 57.12 302.656 56.8629 297.409 56.3457C292.162 55.8313 287.951 55.2529 288 55.0555C288.052 54.8581 292.344 55.1153 297.593 55.6311C302.838 56.1469 307.049 56.7252 307 56.9226Z" fill="#002C68"/>
<path fill-rule="evenodd" clip-rule="evenodd" d="M38.5264 85.3972L39.255 95.271C39.255 95.271 31.0884 96.4044 33.418 104.062C35.7455 111.72 41.331 108.368 41.331 108.368C41.331 108.368 42.7279 127.992 62.2824 121.77C77.8438 116.819 76.8918 96.1017 74.9168 78.4399C74.1517 71.5974 67.8549 66.8936 61.2787 68.2104L49.5233 70.5656C42.73 71.9244 38.002 78.3007 38.5264 85.3972Z" fill="#FFAFA7"/>
<path fill-rule="evenodd" clip-rule="evenodd" d="M39 101.989L44.3427 131.371C45.5455 137.992 51.8731 142.227 58.2247 140.664C64.11 139.215 67.8795 133.284 66.8227 127.139L63.9226 110.298L39 101.989Z" fill="#FFAFA7"/>
<path fill-rule="evenodd" clip-rule="evenodd" d="M61.021 103.201C61.0775 103.147 61.1972 103.451 61.4655 103.493C61.7274 103.529 62.1266 103.166 62.2236 102.398C62.3578 101.637 62.2834 100.636 62.2026 99.4773C62.1331 98.2318 62.0652 96.9993 61.9941 95.7106C61.7435 90.3612 61.7274 86.0086 61.9601 85.9891C62.1929 85.9697 62.5841 90.2899 62.8347 95.6393C62.8832 96.9323 62.93 98.1648 62.9769 99.4124C63.0109 100.556 63.0432 101.687 62.7943 102.623C62.6003 103.601 61.8486 104.206 61.3798 103.916C60.9304 103.611 60.9903 103.194 61.021 103.201Z" fill="#241352"/>
<path fill-rule="evenodd" clip-rule="evenodd" d="M66.9931 118.019C67.083 118.155 66.2896 119.283 64.6501 120.499C63.0282 121.712 60.4945 122.908 57.5772 122.985C54.66 123.067 52.0868 122.012 50.4276 120.886C48.7509 119.761 47.9224 118.678 48.0057 118.536C48.1526 118.126 52.0408 121.687 57.5531 121.511C63.0655 121.387 66.8353 117.617 66.9931 118.019Z" fill="#241352"/>
<path fill-rule="evenodd" clip-rule="evenodd" d="M62.9763 107.726C63.084 107.812 62.8368 108.486 61.9852 109.137C61.1631 109.782 59.65 110.307 58.0609 109.761C56.478 109.197 55.5292 107.809 55.2059 106.764C54.8635 105.694 55.022 104.987 55.1551 104.989C55.3221 104.973 55.4531 105.597 55.9096 106.403C56.3512 107.202 57.2008 108.196 58.3969 108.622C59.5972 109.036 60.8186 108.769 61.6069 108.399C62.4078 108.033 62.8495 107.609 62.9763 107.726Z" fill="#241352"/>
<path fill-rule="evenodd" clip-rule="evenodd" d="M38.9741 104.728C38.9757 104.882 38.6141 105.151 37.9736 104.859C37.6671 104.71 37.2618 104.284 37.0883 103.546C37.0007 103.186 36.9618 102.745 37.0494 102.283C37.1191 101.832 37.3964 101.346 37.7028 101.19C38.1212 100.925 38.7065 101.081 38.9773 101.797L38.2606 102.377C37.792 100.532 37.565 99.1183 37.7401 98.9974C37.9136 98.8764 38.4357 100.089 39 101.868L38.2833 102.447C38.2671 102.409 38.1487 102.329 38.0028 102.417C37.8455 102.49 37.7742 102.782 37.8277 103.168C37.8796 103.536 38.0368 103.811 38.2282 104.02C38.6157 104.418 38.9838 104.534 38.9741 104.728Z" fill="#241352"/>
<path fill-rule="evenodd" clip-rule="evenodd" d="M68.3233 89.9858C68.0433 90.0304 67.6713 89.6191 67.4913 89.0685C67.3133 88.5179 67.3973 88.037 67.6773 87.9924C67.9573 87.9478 68.3293 88.359 68.5073 88.9096C68.6873 89.4602 68.6033 89.9412 68.3233 89.9858Z" fill="#241352"/>
<path fill-rule="evenodd" clip-rule="evenodd" d="M50.3976 90.9842C50.1196 91.0384 49.7176 90.6353 49.4976 90.0863C49.2776 89.5358 49.3256 89.0479 49.6036 88.9937C49.8796 88.9409 50.2816 89.3426 50.5016 89.8931C50.7216 90.4421 50.6756 90.93 50.3976 90.9842Z" fill="#241352"/>
<path fill-rule="evenodd" clip-rule="evenodd" d="M52.9911 86.7739C52.8962 87.0559 52.0125 87.0459 51.0339 87.2999C50.0467 87.5239 49.2815 87.9359 49.0508 87.7319C48.8116 87.5599 49.4237 86.6119 50.7494 86.2919C52.0707 85.9659 53.1075 86.5139 52.9911 86.7739Z" fill="#241352"/>
<path fill-rule="evenodd" clip-rule="evenodd" d="M68.9886 82.1623C68.878 82.4343 68.0174 82.3003 67.0099 82.4043C66.0005 82.4843 65.1743 82.7743 65.0216 82.5263C64.8575 82.3043 65.6399 81.4823 66.924 81.3683C68.2082 81.2463 69.1127 81.9143 68.9886 82.1623Z" fill="#241352"/>
<path fill-rule="evenodd" clip-rule="evenodd" d="M38.2095 95.4627C43.635 90.0098 45.2284 80.9253 46.7001 73.2635C51.724 77.0361 58.634 77.9632 64.4268 75.6442C66.2445 77.8465 68.3805 79.7713 70.7408 81.3306C71.4137 81.7754 72.2083 82.2071 72.9729 81.9692C73.8829 81.6873 74.2887 80.6104 74.5044 79.6546C75.1986 76.6 75.2243 73.3296 74.1905 70.3763C73.1566 67.4274 70.9886 64.8331 68.1498 63.7011C65.1167 62.4899 61.7034 63.0162 58.5528 63.8575C53.8087 65.126 49.2356 67.0751 45.0063 69.6297C40.8539 72.1359 36.8681 75.4548 35.1059 80.0686C33.3459 84.6847 33.3544 93.6568 37.5986 95.9891" fill="#241352"/>
<path fill-rule="evenodd" clip-rule="evenodd" d="M57.5961 110.927C56.0954 110.511 55.6043 108.488 56.3309 107.105C57.0557 105.702 58.0233 104.872 58.5838 105.002C59.1369 105.175 59.7576 106.435 59.9712 108.091C60.194 109.73 59.0968 111.325 57.5961 110.927Z" fill="#241352" fill-opacity="0.2"/>
<path fill-rule="evenodd" clip-rule="evenodd" d="M50.117 102.981C47.7248 103.112 45.8819 101.582 46.0059 99.9415C46.126 98.2871 47.8626 97.1112 49.8847 96.9962C51.9068 96.8949 53.7281 97.8844 53.9762 99.5181C54.2242 101.14 52.5093 102.857 50.117 102.981Z" fill="#241352" fill-opacity="0.12"/>
<path fill-rule="evenodd" clip-rule="evenodd" d="M71.1473 101.981C68.7056 102.112 66.8538 100.582 67.0091 98.9412C67.1621 97.2889 68.8831 96.1083 70.8502 95.9956C72.8195 95.8989 74.6469 96.8885 74.9618 98.5178C75.279 100.133 73.5868 101.852 71.1473 101.981Z" fill="#241352" fill-opacity="0.12"/>
<path fill-rule="evenodd" clip-rule="evenodd" d="M39.1851 119.989C38.8931 119.983 38.7311 116.852 38.5471 113.007C38.3691 109.16 38.2351 106.029 38.5251 105.989C38.8051 105.948 39.4071 109.053 39.5871 112.948C39.7731 116.843 39.4671 119.998 39.1851 119.989Z" fill="#6042DD"/>
<path fill-rule="evenodd" clip-rule="evenodd" d="M72.4629 132.189C67.3018 130.09 107 145.182 107 145.182L102.972 172.989L87.8729 167.917L72.4629 132.189Z" fill="#FB8080"/>
<path fill-rule="evenodd" clip-rule="evenodd" d="M46.7501 69.6575C47.9089 67.4988 48.2907 64.7295 47.7745 62.2197C47.3499 60.1524 46.0859 58.1018 44.3603 57.9936C43.3806 57.9311 42.4302 58.5201 41.7096 59.3446C39.9294 61.3784 39.4717 64.9602 40.6578 67.5709C41.844 70.1816 44.557 71.5687 46.8922 70.7585" fill="#241352"/>
<path fill-rule="evenodd" clip-rule="evenodd" d="M292.392 248.492C292.392 248.492 305.458 229.394 303.865 236.624C302.272 243.854 289 275.989 289 275.989L292.392 248.492Z" fill="#241352"/>
<path fill-rule="evenodd" clip-rule="evenodd" d="M98.351 219.218C98.351 219.218 116.243 213.483 115.629 215.37C115.015 217.255 111.971 217.325 108.927 220.368C108.927 220.368 128.928 220.588 127.966 222.273C127.005 223.955 113.985 224.38 113.906 224.666C113.829 224.954 128.147 225.311 127.826 226.868C127.502 228.426 114.196 228.046 114.196 228.046C114.196 228.046 126.531 229.387 126.278 231.065C126.025 232.745 114.654 231.535 114.654 231.535C114.654 231.535 124.172 232.646 123.923 234.166C123.773 235.093 96.0575 235.302 96 235.984C95.9695 236.341 98.351 219.218 98.351 219.218Z" fill="#FFAFA7"/>
<path fill-rule="evenodd" clip-rule="evenodd" d="M125.474 131.989C125.474 131.989 114.236 117.412 116.239 117.42C118.243 117.426 119.288 120.171 123.179 122.049C123.179 122.049 116.97 103.821 118.89 104.203C120.813 104.586 125.399 116.286 125.7 116.273C125.998 116.26 121.742 103.151 123.338 102.991C124.932 102.83 128.842 115.024 128.842 115.024C128.842 115.024 126.164 103.432 127.853 103.172C129.545 102.912 132.036 113.592 132.036 113.592C132.036 113.592 130.044 104.624 131.581 104.404C132.516 104.271 141 126.517 141 126.517C140.777 126.517 125.474 131.989 125.474 131.989Z" fill="#FFAFA7"/>
<path fill-rule="evenodd" clip-rule="evenodd" d="M26.5238 173.989C26.6275 173.978 26.9808 174.71 27 176.168C26.9962 176.875 26.7484 177.902 25.9765 178.542C25.6078 178.862 25.0586 179.09 24.4902 178.944C23.9276 178.808 23.5032 178.363 23.1979 177.976C22.5795 177.135 22.1782 176.638 21.5445 176.551C20.9377 176.439 20.3904 176.676 20.039 177.052C19.3016 177.835 19.3246 178.741 19.1749 178.732C19.075 178.803 18.6929 177.761 19.5224 176.486C19.9276 175.877 20.7437 175.381 21.6482 175.484C22.0956 175.528 22.5738 175.714 22.977 176.072C23.3707 176.419 23.651 176.837 23.9276 177.181C24.9223 178.761 26.2242 177.22 26.2953 176.083C26.4527 174.884 26.3605 174.003 26.5238 173.989Z" fill="#FCF2FC"/>
<path fill-rule="evenodd" clip-rule="evenodd" d="M35.0078 165.103C34.9385 165.004 35.3247 164.244 36.4834 163.441C37.0523 163.063 38.0158 162.767 38.9667 163.214C39.4327 163.422 39.9281 163.864 40.1359 164.529C40.3458 165.182 40.2303 165.861 40.0939 166.384C39.7706 167.47 39.6027 168.153 39.8924 168.855C40.1464 169.538 40.6481 169.974 41.1497 170.134C42.1951 170.469 42.9088 169.958 42.9865 170.12C43.1019 170.182 42.4827 171.136 40.9902 170.97C40.2723 170.882 39.4096 170.31 38.9772 169.321C38.7589 168.834 38.6371 168.241 38.6938 167.635C38.7484 167.042 38.9226 166.528 39.0401 166.058C39.7433 164.184 37.766 163.672 36.813 164.212C35.7655 164.696 35.1106 165.266 35.0078 165.103Z" fill="#FCF2FC"/>
<path fill-rule="evenodd" clip-rule="evenodd" d="M35.0078 144.104C34.9385 144.002 35.3247 143.245 36.4813 142.442C37.0502 142.064 38.0158 141.765 38.9667 142.215C39.4327 142.423 39.9281 142.865 40.1338 143.53C40.3458 144.183 40.2303 144.861 40.0939 145.385C39.7706 146.471 39.6006 147.154 39.8924 147.853C40.1464 148.539 40.6481 148.974 41.1476 149.134C42.1951 149.469 42.9088 148.958 42.9865 149.12C43.1019 149.182 42.4827 150.136 40.9881 149.97C40.2702 149.879 39.4096 149.307 38.9772 148.321C38.7589 147.835 38.6371 147.242 38.6917 146.635C38.7463 146.042 38.9226 145.528 39.0401 145.058C39.7412 143.185 37.766 142.673 36.813 143.21C35.7634 143.697 35.1106 144.266 35.0078 144.104Z" fill="#FCF2FC"/>
<path fill-rule="evenodd" clip-rule="evenodd" d="M56.5049 171.979C56.4059 172.051 55.5819 171.74 54.6299 170.701C54.1805 170.188 53.7746 169.293 54.1443 168.353C54.3134 167.893 54.7242 167.388 55.3935 167.141C56.0507 166.891 56.7659 166.951 57.324 167.041C58.4863 167.266 59.2136 167.376 59.9119 167.047C60.5981 166.752 60.9992 166.241 61.1176 165.753C61.3616 164.73 60.7575 164.091 60.917 164.004C60.9726 163.89 62.0261 164.408 61.9995 165.842C61.9802 166.532 61.4728 167.394 60.4893 167.881C60.0061 168.126 59.4044 168.287 58.7666 168.279C58.1432 168.273 57.5923 168.144 57.0921 168.068C55.0745 167.54 54.7411 169.462 55.3959 170.326C56.0048 171.289 56.662 171.869 56.5049 171.979Z" fill="#FCF2FC"/>
<path fill-rule="evenodd" clip-rule="evenodd" d="M70.9942 193.172C71.0579 193.275 70.6029 193.974 69.3389 194.662C68.7168 194.982 67.6902 195.191 66.7273 194.684C66.2547 194.447 65.7689 193.981 65.5974 193.322C65.4238 192.677 65.593 192.032 65.7733 191.539C66.1844 190.513 66.4086 189.867 66.1558 189.171C65.936 188.489 65.4435 188.03 64.9313 187.835C63.863 187.43 63.0826 187.869 63.0123 187.708C62.8957 187.636 63.6102 186.764 65.1578 187.044C65.9008 187.186 66.7603 187.804 67.1428 188.792C67.3363 189.278 67.4242 189.858 67.3231 190.441C67.2241 191.008 67.0043 191.492 66.8482 191.935C65.9843 193.685 68.0133 194.339 69.0465 193.891C70.1742 193.506 70.8975 193.009 70.9942 193.172Z" fill="#FCF2FC"/>
<path fill-rule="evenodd" clip-rule="evenodd" d="M87.9942 159.173C88.0579 159.276 87.6029 159.977 86.3389 160.663C85.7168 160.981 84.6902 161.191 83.7273 160.685C83.2547 160.448 82.7689 159.982 82.5974 159.325C82.4238 158.677 82.593 158.032 82.7733 157.539C83.1844 156.515 83.4086 155.87 83.1558 155.171C82.936 154.49 82.4435 154.03 81.9313 153.835C80.863 153.43 80.0826 153.867 80.0123 153.708C79.8957 153.636 80.6102 152.764 82.1578 153.044C82.9008 153.186 83.7603 153.804 84.1428 154.792C84.3385 155.278 84.4242 155.859 84.3231 156.441C84.2241 157.008 84.0043 157.492 83.8482 157.936C82.9843 159.688 85.0133 160.338 86.0465 159.892C87.1742 159.506 87.8975 159.009 87.9942 159.173Z" fill="#FCF2FC"/>
<path fill-rule="evenodd" clip-rule="evenodd" d="M97.9534 155.01C98.0306 154.919 98.8826 155.107 100.013 156.031C100.549 156.492 101.127 157.353 100.975 158.385C100.912 158.886 100.629 159.475 100.044 159.838C99.4702 160.201 98.7773 160.254 98.2249 160.25C97.0709 160.203 96.3546 160.205 95.7601 160.657C95.1702 161.073 94.8963 161.664 94.887 162.19C94.8753 163.285 95.5869 163.851 95.4534 163.965C95.4253 164.094 94.3112 163.727 94.0279 162.238C93.9015 161.52 94.1988 160.547 95.0321 159.886C95.4394 159.555 95.9801 159.293 96.5887 159.198C97.1833 159.107 97.7357 159.152 98.2296 159.15C100.261 159.373 100.172 157.334 99.3625 156.542C98.576 155.643 97.827 155.149 97.9534 155.01Z" fill="#FCF2FC"/>
<path fill-rule="evenodd" clip-rule="evenodd" d="M51.9942 211.173C52.0579 211.276 51.6029 211.975 50.3389 212.663C49.7168 212.981 48.6902 213.192 47.7274 212.685C47.2547 212.445 46.7689 211.982 46.5974 211.323C46.4238 210.677 46.593 210.032 46.7711 209.539C47.1844 208.513 47.4086 207.868 47.1558 207.171C46.936 206.49 46.4436 206.03 45.9314 205.835C44.8608 205.43 44.0804 205.869 44.0123 205.708C43.8958 205.636 44.608 204.764 46.1578 205.044C46.9008 205.186 47.7603 205.804 48.1428 206.792C48.3363 207.278 48.422 207.859 48.3231 208.441C48.2242 209.008 48.0043 209.492 47.8483 209.934C46.9843 211.686 49.0133 212.338 50.0443 211.892C51.1742 211.507 51.8975 211.009 51.9942 211.173Z" fill="#FCF2FC"/>
<path fill-rule="evenodd" clip-rule="evenodd" d="M76.9854 177.982C76.8827 178.05 76.1499 177.633 75.3965 176.433C75.0426 175.843 74.7846 174.853 75.2572 173.895C75.4787 173.428 75.933 172.936 76.5928 172.744C77.2434 172.547 77.9078 172.686 78.4192 172.84C79.4785 173.2 80.1451 173.392 80.846 173.116C81.5286 172.877 81.9761 172.378 82.1519 171.873C82.5172 170.817 82.0354 170.077 82.1975 170.002C82.266 169.886 83.1838 170.543 82.9669 172.06C82.855 172.789 82.2637 173.649 81.2752 174.061C80.7889 174.271 80.2022 174.378 79.604 174.303C79.0219 174.23 78.5196 174.036 78.063 173.903C76.2412 173.133 75.6681 175.131 76.1681 176.117C76.6087 177.199 77.1475 177.881 76.9854 177.982Z" fill="#FCF2FC"/>
<path fill-rule="evenodd" clip-rule="evenodd" d="M81.9842 194.982C81.8837 195.049 81.1486 194.634 80.3953 193.432C80.0437 192.843 79.7835 191.851 80.2583 190.895C80.4775 190.426 80.9318 189.937 81.5938 189.744C82.2444 189.547 82.9064 189.684 83.4178 189.84C84.4771 190.2 85.1459 190.392 85.8445 190.116C86.5271 189.875 86.9745 189.378 87.1503 188.874C87.5155 187.815 87.0362 187.077 87.196 187.002C87.2644 186.887 88.1821 187.541 87.9676 189.058C87.8557 189.787 87.2622 190.649 86.2737 191.062C85.7897 191.271 85.2007 191.376 84.6026 191.301C84.0205 191.229 83.5205 191.036 83.0617 190.903C81.24 190.133 80.667 192.131 81.1669 193.117C81.6075 194.199 82.1485 194.882 81.9842 194.982Z" fill="#FCF2FC"/>
<path fill-rule="evenodd" clip-rule="evenodd" d="M46.191 188.988C46.0789 188.971 45.8568 188.079 46.1329 186.493C46.2803 185.728 46.7515 184.687 47.694 184.21C48.1487 183.966 48.7735 183.874 49.3444 184.195C49.9112 184.503 50.2682 185.107 50.5111 185.614C50.9907 186.697 51.3145 187.351 51.9643 187.627C52.5829 187.92 53.2057 187.815 53.6541 187.51C54.5904 186.869 54.7503 185.882 54.908 185.934C55.0284 185.885 55.2173 187.125 54.0839 188.27C53.5337 188.814 52.5726 189.122 51.6384 188.752C51.1734 188.578 50.7083 188.24 50.3554 187.738C50.0108 187.251 49.7991 186.717 49.5769 186.265C48.8524 184.275 47.1647 185.574 46.8574 186.784C46.4484 188.039 46.3654 189.023 46.191 188.988Z" fill="#FCF2FC"/>
<path fill-rule="evenodd" clip-rule="evenodd" d="M78.192 210.988C78.0798 210.971 77.8556 210.079 78.1338 208.493C78.2792 207.728 78.7525 206.687 79.6951 206.21C80.1477 205.966 80.7747 205.874 81.3456 206.195C81.9124 206.503 82.2674 207.107 82.5124 207.614C82.992 208.697 83.3158 209.351 83.9657 209.627C84.5823 209.92 85.2072 209.815 85.6556 209.51C86.592 208.869 86.7518 207.882 86.9075 207.934C87.0279 207.885 87.2189 209.125 86.0833 210.27C85.5331 210.814 84.5719 211.122 83.6397 210.752C83.1747 210.578 82.7096 210.24 82.3567 209.738C82.012 209.251 81.8003 208.717 81.5781 208.265C80.8536 206.275 79.1636 207.574 78.8584 208.787C78.4494 210.039 78.3664 211.023 78.192 210.988Z" fill="#FCF2FC"/>
<path fill-rule="evenodd" clip-rule="evenodd" d="M78.192 143.988C78.0798 143.971 77.8556 143.076 78.1338 141.494C78.2792 140.728 78.7525 139.685 79.6951 139.21C80.1477 138.966 80.7747 138.874 81.3456 139.195C81.9124 139.501 82.2674 140.107 82.5124 140.611C82.992 141.697 83.3158 142.351 83.9657 142.627C84.5823 142.917 85.2072 142.815 85.6556 142.51C86.592 141.869 86.7518 140.882 86.9075 140.934C87.0279 140.882 87.2189 142.122 86.0833 143.268C85.5331 143.814 84.5719 144.12 83.6397 143.752C83.1747 143.576 82.7096 143.238 82.3567 142.738C82.012 142.249 81.8003 141.715 81.5781 141.265C80.8536 139.272 79.1636 140.572 78.8584 141.784C78.4494 143.039 78.3664 144.021 78.192 143.988Z" fill="#FCF2FC"/>
<path fill-rule="evenodd" clip-rule="evenodd" d="M66.7607 218.957C66.6896 219.054 65.745 218.964 64.3891 218.194C63.7416 217.809 62.9926 217.039 63.0002 216.025C62.9926 215.533 63.2084 214.932 63.7848 214.516C64.346 214.102 65.0849 213.975 65.679 213.917C66.9283 213.837 67.6977 213.754 68.2715 213.252C68.8428 212.785 69.0485 212.184 68.98 211.676C68.8276 210.614 67.977 210.144 68.1039 210.019C68.1141 209.893 69.3685 210.124 69.8966 211.534C70.1429 212.213 69.9677 213.186 69.1704 213.919C68.7819 214.283 68.2411 214.598 67.5987 214.755C66.9715 214.909 66.3697 214.928 65.8415 214.981C63.6198 214.989 64.0235 216.953 65.0138 217.628C65.9939 218.412 66.875 218.807 66.7607 218.957Z" fill="#FCF2FC"/>
<path fill-rule="evenodd" clip-rule="evenodd" d="M29.3904 152.994C29.4932 152.932 30.1521 153.447 30.7518 154.798C31.0298 155.462 31.1764 156.539 30.6292 157.513C30.3731 157.989 29.8916 158.469 29.2415 158.608C28.6002 158.753 27.9808 158.54 27.5081 158.327C26.5319 157.84 25.9146 157.57 25.2208 157.794C24.5445 157.984 24.0695 158.471 23.8506 158.99C23.3954 160.079 23.7806 160.914 23.6186 160.978C23.5442 161.094 22.7322 160.303 23.0911 158.711C23.2706 157.948 23.9207 157.09 24.9056 156.747C25.3893 156.573 25.9606 156.516 26.5231 156.655C27.0703 156.788 27.5299 157.044 27.9546 157.232C29.6158 158.227 30.3622 156.157 29.9835 155.059C29.6705 153.863 29.224 153.085 29.3904 152.994Z" fill="#FCF2FC"/>
<path fill-rule="evenodd" clip-rule="evenodd" d="M65.3904 147.994C65.4933 147.932 66.1521 148.447 66.7518 149.798C67.0298 150.462 67.1764 151.541 66.6292 152.513C66.3731 152.989 65.8916 153.469 65.2415 153.608C64.6002 153.753 63.9808 153.54 63.508 153.327C62.5319 152.84 61.9146 152.57 61.2208 152.794C60.5445 152.984 60.0695 153.471 59.8506 153.99C59.3954 155.079 59.7806 155.914 59.6186 155.978C59.5442 156.094 58.7322 155.305 59.0911 153.711C59.2706 152.948 59.9207 152.09 60.9056 151.749C61.3893 151.573 61.9606 151.516 62.5231 151.655C63.0703 151.788 63.5299 152.044 63.9546 152.232C65.6158 153.227 66.3622 151.157 65.9835 150.059C65.6705 148.863 65.224 148.085 65.3904 147.994Z" fill="#FCF2FC"/>
<path fill-rule="evenodd" clip-rule="evenodd" d="M43.088 186.989C43.0081 186.98 43.0214 186.147 43.1124 184.651C43.2034 183.152 43.3721 180.989 43.6052 178.319C44.0691 172.982 44.8016 165.609 45.6607 157.491C45.856 155.475 45.9559 153.513 45.6851 151.684C45.4343 149.852 44.7395 148.206 43.7295 146.869C41.6917 144.17 38.7994 142.767 36.3399 142.165C33.847 141.554 31.7227 141.584 30.2754 141.625C28.8215 141.677 28.0135 141.77 28 141.679C27.9868 141.609 28.7704 141.361 30.2377 141.166C31.7005 140.982 33.8759 140.817 36.5197 141.35C39.1235 141.877 42.28 143.273 44.5686 146.201C45.7073 147.645 46.5197 149.516 46.8061 151.507C47.1146 153.498 47.0081 155.559 46.8105 157.607C45.9493 165.75 45.0902 173.091 44.4176 178.41C44.0802 181.068 43.7872 183.218 43.5586 184.698C43.3321 186.183 43.1679 186.998 43.088 186.989Z" fill="#241352"/>
<path fill-rule="evenodd" clip-rule="evenodd" d="M46 185.037C46.0332 185.205 38.4503 185.768 29.061 186.293C19.6718 186.82 12.0334 187.11 12 186.941C11.9668 186.774 19.5497 186.21 28.9412 185.685C38.326 185.159 45.9666 184.868 46 185.037Z" fill="#241352"/>
<path fill-rule="evenodd" clip-rule="evenodd" d="M88.7033 179.988C88.3453 179.954 90.0767 173.484 88.1004 165.777C86.2476 158.037 81.7129 153.198 82.0143 152.994C82.0981 152.906 83.3438 153.964 84.8888 156.109C86.4339 158.241 88.1695 161.542 89.1576 165.505C90.1332 169.467 90.1437 173.216 89.7794 175.844C89.4193 178.485 88.8185 180.025 88.7033 179.988Z" fill="#241352"/>
<path fill-rule="evenodd" clip-rule="evenodd" d="M226.542 67.9671C231.693 70.6182 237.339 73.2021 242.92 74.916C244.679 75.4569 245.873 72.8434 244.191 72.0389C238.942 69.5265 233.028 67.5886 227.397 66.0312C226.201 65.7023 225.422 67.3905 226.542 67.9671Z" fill="#FF7081"/>
<path fill-rule="evenodd" clip-rule="evenodd" d="M115.943 9.59254C108.889 11.6916 103.053 16.8736 100.498 23.2062C97.9443 29.5411 98.6995 36.8888 102.427 42.7216C109.6 53.9519 128.019 57.568 139.656 50.0315C151.292 42.495 153.541 25.4918 144.202 15.6631C134.861 5.83651 116.024 5.38339 106.125 14.7501" fill="#D3F5DA"/>
<path d="M214.325 167.861L218.572 170.364L220.498 167.098L218.813 166.105L217.484 168.361L217.469 168.352L217.458 168.405L214.676 166.764C214.06 166.402 213.655 166.387 213.459 166.719C213.275 167.031 213.496 167.371 214.12 167.74L214.325 167.861ZM225.009 167.547L224.042 169.187L222.577 168.324L217.751 176.511L215.672 175.285L217.649 171.931L216.389 171.189C216.335 171.459 216.207 171.765 216.006 172.107C215.568 172.849 214.961 173.3 214.182 173.46C213.42 173.615 212.623 173.448 211.794 172.959C211.159 172.585 210.667 172.091 210.318 171.478L209.593 172.708L207.543 171.499L209.598 168.014L211.501 169.136C211.454 169.595 211.514 170.018 211.68 170.406C211.852 170.784 212.104 171.07 212.436 171.266C212.739 171.444 213.019 171.517 213.275 171.484C213.537 171.441 213.746 171.288 213.901 171.024C214.085 170.712 214.097 170.436 213.935 170.196C213.774 169.956 213.493 169.718 213.093 169.482C211.072 168.291 210.473 166.997 211.296 165.601C211.751 164.83 212.353 164.422 213.103 164.377C213.868 164.328 214.686 164.56 215.555 165.072L216.375 165.556L216.763 164.897L211.725 161.927L212.692 160.287L225.009 167.547Z" fill="#3A3A3A" fill-opacity="0.39"/>
<path d="M212.979 167.483L217.226 169.987L219.151 166.721L217.467 165.728L216.137 167.984L216.123 167.975L216.111 168.028L213.329 166.387C212.714 166.025 212.308 166.009 212.113 166.341C211.929 166.654 212.149 166.994 212.774 167.362L212.979 167.483ZM223.662 167.17L222.695 168.81L221.23 167.947L216.405 176.133L214.325 174.908L216.302 171.554L215.043 170.811C214.988 171.082 214.86 171.388 214.659 171.73C214.222 172.472 213.614 172.923 212.836 173.082C212.073 173.238 211.277 173.071 210.447 172.582C209.812 172.208 209.321 171.714 208.972 171.101L208.247 172.331L206.196 171.122L208.251 167.637L210.155 168.759C210.108 169.218 210.167 169.641 210.334 170.029C210.506 170.406 210.758 170.693 211.09 170.889C211.392 171.067 211.672 171.14 211.928 171.107C212.19 171.064 212.399 170.911 212.554 170.647C212.739 170.335 212.75 170.059 212.589 169.819C212.427 169.579 212.147 169.341 211.746 169.105C209.725 167.914 209.126 166.62 209.949 165.224C210.404 164.453 211.006 164.045 211.756 164C212.522 163.951 213.339 164.183 214.208 164.695L215.028 165.179L215.416 164.52L210.379 161.55L211.345 159.91L223.662 167.17Z" fill="#FF7081"/>
<path d="M192.261 100.085L193.448 100.784C194.561 101.44 195.341 101.387 195.79 100.626C196.239 99.8643 195.912 99.1584 194.809 98.508L193.608 97.8001L192.261 100.085ZM195.956 93.8167L194.653 96.0281L195.487 96.5202C196.073 96.8655 196.576 97.0171 196.995 96.9749C197.425 96.9386 197.743 96.7446 197.95 96.3931C198.359 95.7 198.094 95.0771 197.157 94.5246L195.956 93.8167ZM194.763 90.6859L198.6 92.9477C199.683 93.5866 200.356 94.3316 200.617 95.1829C200.884 96.0244 200.784 96.8405 200.318 97.6313C200.013 98.1488 199.609 98.5222 199.105 98.7516C198.602 98.981 198.09 99.0345 197.57 98.9122C198.511 99.9273 198.627 101.035 197.92 102.236C197.459 103.017 196.796 103.495 195.931 103.669C195.081 103.838 194.172 103.639 193.206 103.069L188.944 100.557L194.763 90.6859Z" fill="#3A3A3A" fill-opacity="0.39"/>
<path d="M281.982 114.525L284.252 115.863L278.433 125.734L276.163 124.396L278.486 120.456L274.868 118.324L272.546 122.263L270.291 120.934L276.109 111.063L278.365 112.393L275.999 116.405L279.617 118.538L281.982 114.525Z" fill="#3A3A3A" fill-opacity="0.39"/>
<path d="M291.988 154.356L291.021 155.996L289.556 155.133L284.73 163.319L282.68 162.111L283.854 160.119C282.912 160.445 281.86 160.266 280.698 159.581C279.79 159.046 279.158 158.377 278.802 157.575C278.456 156.779 278.507 156 278.956 155.238C279.296 154.662 279.76 154.331 280.351 154.245C280.956 154.155 281.635 154.298 282.386 154.675C281.734 154.264 281.3 153.818 281.084 153.336C280.884 152.849 280.928 152.362 281.216 151.874C281.555 151.298 282.012 151.014 282.585 151.024L280.725 149.927L281.692 148.287L286.452 151.093L285.485 152.733L285.441 152.707C284.494 152.149 283.816 152.216 283.407 152.909C283.056 153.505 283.315 154.059 284.184 154.571L284.77 154.916L283.751 156.644L283.048 156.23C282.121 155.683 281.49 155.693 281.156 156.259C280.972 156.572 280.953 156.883 281.1 157.193C281.261 157.499 281.542 157.769 281.943 158.005C282.655 158.426 283.325 158.584 283.952 158.48C284.589 158.381 285.12 157.971 285.546 157.249L288.473 152.284L291.988 154.356Z" fill="#3A3A3A" fill-opacity="0.39"/>
<path d="M280.635 114.148L282.905 115.486L277.087 125.356L274.817 124.018L277.139 120.079L273.522 117.947L271.199 121.886L268.944 120.557L274.763 110.686L277.018 112.015L274.653 116.028L278.27 118.16L280.635 114.148Z" fill="#7CABFF"/>
<path d="M290.641 152.979L289.674 154.619L288.209 153.756L283.384 161.942L281.333 160.733L282.508 158.742C281.565 159.068 280.513 158.888 279.352 158.204C278.444 157.668 277.812 157 277.455 156.198C277.109 155.402 277.16 154.623 277.609 153.861C277.949 153.285 278.414 152.954 279.004 152.868C279.61 152.778 280.288 152.921 281.039 153.298C280.387 152.887 279.953 152.441 279.737 151.958C279.537 151.472 279.581 150.985 279.869 150.497C280.209 149.921 280.665 149.637 281.239 149.646L279.379 148.55L280.345 146.91L285.105 149.715L284.138 151.356L284.094 151.33C283.147 150.771 282.469 150.839 282.061 151.532C281.71 152.128 281.969 152.682 282.838 153.194L283.423 153.539L282.405 155.267L281.702 154.853C280.774 154.306 280.144 154.316 279.81 154.882C279.626 155.195 279.607 155.506 279.753 155.816C279.915 156.121 280.196 156.392 280.596 156.628C281.309 157.048 281.979 157.206 282.606 157.102C283.242 157.004 283.774 156.594 284.2 155.871L287.126 150.907L290.641 152.979Z" fill="#7CABFF"/>
<path d="M170.494 127.842L172.368 124.664L170.654 123.654L168.772 126.846C168.392 127.491 168.491 127.983 169.067 128.322C169.633 128.656 170.109 128.496 170.494 127.842ZM180.613 127.314L179.646 128.954L178.182 128.091L173.356 136.278L171.291 135.06L176.117 126.874L174.403 125.864L172.634 128.866C172.081 129.803 171.399 130.368 170.588 130.561C169.783 130.744 168.922 130.565 168.004 130.024C167.076 129.478 166.505 128.818 166.289 128.046C166.083 127.28 166.256 126.429 166.808 125.491L168.604 122.445L167.725 121.927L168.692 120.287L180.613 127.314Z" fill="#3A3A3A" fill-opacity="0.39"/>
<path d="M237.204 118.756L235.227 117.591C235.253 117.146 235.378 116.733 235.602 116.352C235.994 115.688 236.572 115.266 237.336 115.085C238.11 114.91 238.897 115.058 239.698 115.53C240.596 116.059 241.153 116.756 241.367 117.619C241.588 118.473 241.448 119.324 240.947 120.173C240.302 121.267 239.448 121.901 238.384 122.077C237.321 122.252 236.274 122.076 235.243 121.547L236.651 127.093L234.015 125.539L232.798 120.205L233.808 118.491L235.449 119.458C236.2 119.901 236.879 120.078 237.485 119.988C238.091 119.897 238.569 119.554 238.92 118.959C239.38 118.178 239.313 117.612 238.717 117.261C238.483 117.123 238.253 117.099 238.029 117.19C237.814 117.287 237.634 117.458 237.49 117.702C237.318 117.995 237.222 118.346 237.204 118.756ZM243.571 117.931L247.115 120.021L246.148 121.661L244.684 120.797L239.858 128.984L237.778 127.758L243.571 117.931Z" fill="#3A3A3A" fill-opacity="0.39"/>
<path d="M235.857 117.379L233.88 116.214C233.906 115.769 234.031 115.355 234.256 114.975C234.647 114.311 235.225 113.888 235.989 113.708C236.763 113.532 237.551 113.681 238.351 114.153C239.25 114.682 239.806 115.379 240.021 116.242C240.241 117.095 240.101 117.947 239.6 118.796C238.956 119.89 238.102 120.524 237.038 120.7C235.974 120.875 234.927 120.699 233.897 120.17L235.304 125.716L232.668 124.162L231.452 118.828L232.462 117.114L234.102 118.081C234.854 118.524 235.532 118.701 236.138 118.61C236.744 118.52 237.222 118.177 237.573 117.582C238.034 116.801 237.966 116.235 237.371 115.883C237.136 115.745 236.907 115.722 236.682 115.813C236.467 115.91 236.288 116.08 236.144 116.325C235.971 116.617 235.876 116.969 235.857 117.379ZM242.224 116.554L245.769 118.643L244.802 120.284L243.337 119.42L238.511 127.607L236.432 126.381L242.224 116.554Z" fill="#241352"/>
<path d="M193.692 147.453L194.718 148.057C195.626 148.592 196.491 148.72 197.312 148.442C198.144 148.169 198.865 147.515 199.475 146.48C199.993 145.602 200.159 144.752 199.971 143.931C199.79 143.101 199.245 142.418 198.337 141.883L197.327 141.287L193.692 147.453ZM196.109 138.063L199.507 140.066C200.991 140.941 201.936 142.116 202.342 143.592C202.754 145.058 202.56 146.47 201.76 147.827C200.827 149.409 199.625 150.377 198.152 150.733C196.69 151.094 195.192 150.823 193.659 149.919L190.291 147.934L196.109 138.063Z" fill="#3A3A3A" fill-opacity="0.39"/>
<path d="M192.346 146.075L193.371 146.68C194.279 147.215 195.144 147.343 195.966 147.065C196.798 146.792 197.518 146.138 198.128 145.103C198.646 144.225 198.812 143.375 198.625 142.554C198.443 141.724 197.899 141.041 196.991 140.505L195.98 139.91L192.346 146.075ZM194.763 136.686L198.16 138.689C199.644 139.564 200.589 140.739 200.995 142.215C201.407 143.681 201.213 145.093 200.413 146.45C199.481 148.032 198.278 149 196.806 149.356C195.343 149.717 193.845 149.446 192.312 148.542L188.944 146.557L194.763 136.686Z" fill="#FF957E"/>
<path d="M189.915 98.7076L191.101 99.4068C192.214 100.063 192.995 100.01 193.444 99.2487C193.893 98.4871 193.565 97.7812 192.462 97.1309L191.261 96.423L189.915 98.7076ZM193.609 92.4395L192.306 94.6509L193.141 95.143C193.726 95.4883 194.229 95.6399 194.649 95.5978C195.078 95.5614 195.396 95.3675 195.603 95.016C196.012 94.3228 195.748 93.6999 194.81 93.1474L193.609 92.4395ZM192.416 89.3088L196.253 91.5706C197.337 92.2094 198.009 92.9544 198.27 93.8057C198.537 94.6472 198.438 95.4633 197.972 96.2542C197.667 96.7716 197.262 97.145 196.759 97.3744C196.255 97.6038 195.743 97.6574 195.223 97.5351C196.164 98.5501 196.281 99.6581 195.573 100.859C195.113 101.64 194.45 102.118 193.584 102.291C192.734 102.461 191.826 102.261 190.859 101.692L186.597 99.1794L192.416 89.3088Z" fill="#FBC580"/>
<path d="M169.148 126.465L171.021 123.287L169.308 122.277L167.426 125.469C167.046 126.114 167.144 126.605 167.72 126.945C168.286 127.279 168.762 127.119 169.148 126.465ZM179.266 125.937L178.3 127.577L176.835 126.714L172.009 134.9L169.944 133.683L174.77 125.497L173.057 124.487L171.287 127.489C170.734 128.426 170.053 128.991 169.242 129.184C168.437 129.367 167.575 129.188 166.657 128.647C165.73 128.1 165.158 127.441 164.942 126.669C164.736 125.903 164.909 125.051 165.462 124.114L167.257 121.068L166.379 120.55L167.345 118.91L179.266 125.937Z" fill="#7CABFF"/>
</g>
<defs>
<clipPath id="clip0_2_126">
<rect width="330" height="303" fill="white" transform="translate(0.5 0.5)"/>
</clipPath>
</defs>
</svg>
