<svg width="284" height="315" viewBox="0 0 284 315" fill="none" xmlns="http://www.w3.org/2000/svg">
<g clip-path="url(#clip0_2_267)">
<path fill-rule="evenodd" clip-rule="evenodd" d="M187.502 293.69C187.502 293.69 130.425 306.921 107.5 284.073L115.703 229.501C118.196 213.814 116.71 183.634 128.764 172.927C131.096 170.854 133.342 169.823 133.342 169.823C141.798 165.753 156.841 163.555 171.287 163.5C188.834 163.433 206.894 176.655 211.5 193.528L192.508 237.799L187.502 293.69Z" fill="#FF7081"/>
<path fill-rule="evenodd" clip-rule="evenodd" d="M182.835 200.283C182.835 200.283 208.435 249.249 195.726 251.856C153.904 260.434 129.632 267.469 129.632 267.469L127.5 283.593C128.123 286.031 212.107 283.925 222.055 272.72C229.078 264.809 238.416 246.528 218.551 206.96L212.516 193.5L182.835 200.283Z" fill="#FFAFA7"/>
<path fill-rule="evenodd" clip-rule="evenodd" d="M135.5 173.407L71.6659 197.849L69.6682 164.728L56.0018 159.5C56.0018 159.5 36.1848 212.664 60.9683 222.562C85.7519 232.462 113.677 214.17 113.677 214.17L135.5 173.407Z" fill="#FFAFA7"/>
<path fill-rule="evenodd" clip-rule="evenodd" d="M142.5 166.5C120.53 173.552 107.428 181.817 76.5 194.815L92.3821 230.5L119.755 221.645L142.5 166.5Z" fill="#FF7081"/>
<path fill-rule="evenodd" clip-rule="evenodd" d="M179.506 192.907L195.478 230.5L231.5 223.837L207.232 181.5L178.5 192.907" fill="#FF7081"/>
<path fill-rule="evenodd" clip-rule="evenodd" d="M159.935 218.234C167.66 217.828 175.29 218.144 183.009 218.24C183.684 218.25 183.643 217.348 183.009 217.276C175.402 216.416 167.548 216.76 159.935 217.378C159.361 217.426 159.349 218.266 159.935 218.234Z" fill="#002C68"/>
<path fill-rule="evenodd" clip-rule="evenodd" d="M194.184 174.501C168.213 176.868 185.977 215.515 192.633 227.215C193.001 227.867 193.997 227.283 193.631 226.627C187.015 214.806 169.312 178.84 194.269 175.141C194.627 175.088 194.547 174.467 194.184 174.501Z" fill="#002C68"/>
<path fill-rule="evenodd" clip-rule="evenodd" d="M121.826 196.744C118.53 209.538 116.317 222.843 115.501 236.017C115.466 236.562 116.412 236.7 116.493 236.148C118.409 223.05 120.336 209.988 122.495 196.921C122.564 196.505 121.937 196.313 121.826 196.744Z" fill="#002C68"/>
<path fill-rule="evenodd" clip-rule="evenodd" d="M183.797 125.5C184.198 119.95 184.604 114.4 185.006 108.849C189.381 107.62 191.657 102.04 189.909 97.8554C188.164 93.6708 183.207 91.3208 178.705 91.9621C181.545 90.0339 181.329 85.4296 178.998 82.9134C176.667 80.3971 173.016 79.5811 169.582 79.449C166.149 79.3169 162.675 79.7324 159.297 79.1081C156.306 78.552 153.375 77.1863 150.356 77.5656C147.337 77.9469 144.451 81.3346 146.079 83.8977C141.725 83.2607 137.014 82.6812 133.144 84.7755C129.275 86.8699 127.333 92.8292 130.657 95.7056C128.461 96.822 127.912 99.9924 129.147 102.121C130.382 104.247 132.911 105.366 135.368 105.543C137.828 105.717 140.267 105.097 142.654 104.482" fill="#241352"/>
<path fill-rule="evenodd" clip-rule="evenodd" d="M182.945 114.757L182.08 126.247C182.08 126.247 191.764 127.565 189.006 136.475C186.243 145.385 179.619 141.487 179.619 141.487C179.619 141.487 177.961 164.322 154.771 157.082C136.314 151.318 137.442 127.213 139.785 106.662C140.694 98.7001 148.16 93.2254 155.959 94.7575L169.901 97.4969C177.961 99.0799 183.567 106.5 182.945 114.757Z" fill="#FFAFA7"/>
<path fill-rule="evenodd" clip-rule="evenodd" d="M181.5 136.5L175.205 169.65C173.785 177.118 166.33 181.896 158.843 180.134C151.906 178.499 147.463 171.808 148.709 164.874L152.126 145.874L181.5 136.5Z" fill="#FFAFA7"/>
<path fill-rule="evenodd" clip-rule="evenodd" d="M155.478 136.589C155.515 136.576 155.584 137.075 154.91 137.42C154.211 137.748 153.089 137.033 152.801 135.859C152.427 134.728 152.483 133.359 152.544 131.953C152.618 130.458 152.695 128.933 152.774 127.333C153.166 120.779 153.719 115.483 154.02 115.5C154.315 115.522 154.242 120.849 153.854 127.405C153.742 129.001 153.639 130.528 153.535 132.021C153.417 133.44 153.307 134.678 153.533 135.631C153.697 136.594 154.364 137.066 154.798 136.994C155.242 136.915 155.404 136.528 155.478 136.589Z" fill="#241352"/>
<path fill-rule="evenodd" clip-rule="evenodd" d="M147.505 154.515C147.613 154.388 148.747 155.078 150.743 155.856C152.721 156.637 155.634 157.436 158.933 157.496C162.237 157.557 165.183 156.868 167.198 156.159C169.229 155.456 170.395 154.809 170.495 154.94C170.579 155.034 169.56 155.902 167.529 156.806C165.52 157.711 162.421 158.562 158.909 158.496C155.4 158.433 152.346 157.467 150.379 156.489C148.395 155.51 147.42 154.605 147.505 154.515Z" fill="#241352"/>
<path fill-rule="evenodd" clip-rule="evenodd" d="M152.521 141.294C152.654 141.192 153.187 141.647 154.203 142.045C155.194 142.448 156.763 142.745 158.313 142.308C159.862 141.862 160.941 140.813 161.483 139.976C162.044 139.128 162.176 138.485 162.354 138.5C162.488 138.498 162.656 139.21 162.213 140.28C161.794 141.323 160.61 142.706 158.664 143.27C156.708 143.815 154.837 143.301 153.808 142.669C152.742 142.029 152.409 141.362 152.521 141.294Z" fill="#241352"/>
<path fill-rule="evenodd" clip-rule="evenodd" d="M182.5 137.294C182.486 137.128 183.066 137.046 183.709 136.651C184.03 136.447 184.308 136.157 184.41 135.751C184.513 135.338 184.395 134.953 184.072 134.85C183.806 134.747 183.553 134.833 183.494 134.93L182.559 134.449C183.435 132.649 184.218 131.405 184.448 131.506C184.674 131.607 184.277 133.018 183.524 134.873L182.591 134.39C182.983 133.726 183.842 133.575 184.463 133.827C184.918 133.976 185.319 134.43 185.427 134.859C185.555 135.296 185.501 135.718 185.37 136.067C185.114 136.779 184.509 137.197 184.043 137.35C183.068 137.657 182.496 137.417 182.5 137.294Z" fill="#241352"/>
<path fill-rule="evenodd" clip-rule="evenodd" d="M164.507 115.198C164.408 114.94 165.436 114.334 166.735 114.72C168.035 115.098 168.662 116.19 168.464 116.362C168.271 116.566 167.519 116.012 166.497 115.728C165.486 115.414 164.583 115.482 164.507 115.198Z" fill="#241352"/>
<path fill-rule="evenodd" clip-rule="evenodd" d="M143.51 110.676C143.382 110.428 144.51 109.676 146.088 109.822C147.667 109.956 148.649 110.896 148.481 111.116C148.322 111.366 147.294 110.96 146 110.86C144.705 110.73 143.624 110.95 143.51 110.676Z" fill="#241352"/>
<path fill-rule="evenodd" clip-rule="evenodd" d="M181.468 126.879C174.985 120.434 173.08 109.697 171.321 100.644C165.318 105.102 157.058 106.198 150.136 103.456C147.962 106.06 145.41 108.333 142.589 110.178C141.786 110.703 140.834 111.214 139.922 110.932C138.834 110.597 138.35 109.326 138.091 108.198C137.262 104.586 137.233 100.72 138.468 97.2329C139.704 93.7441 142.292 90.6806 145.686 89.3423C149.311 87.9094 153.392 88.5324 157.155 89.527C162.825 91.0265 168.291 93.3295 173.348 96.3478C178.308 99.3103 183.074 103.231 185.177 108.688C187.282 114.142 187.273 124.742 182.199 127.5" fill="#241352"/>
<path fill-rule="evenodd" clip-rule="evenodd" d="M166.382 123.5C166.094 123.482 165.916 122.794 165.98 121.966C166.046 121.137 166.332 120.482 166.618 120.5C166.906 120.518 167.086 121.206 167.018 122.034C166.954 122.861 166.668 123.518 166.382 123.5Z" fill="#241352"/>
<path fill-rule="evenodd" clip-rule="evenodd" d="M147.381 121.5C147.093 121.482 146.915 120.794 146.981 119.966C147.045 119.137 147.331 118.482 147.617 118.5C147.905 118.518 148.085 119.206 148.019 120.034C147.953 120.861 147.669 121.518 147.381 121.5Z" fill="#241352"/>
<path fill-rule="evenodd" clip-rule="evenodd" d="M54.5 161.031C54.5 161.031 57.3263 143.566 60.7047 143.754C64.0831 143.942 70.8356 143.754 70.8356 143.754C70.8356 143.754 71.4005 127.142 73.2776 129.785C75.1526 132.428 75.7429 154.778 68.5062 165.5L54.5 161.031Z" fill="#FFAFA7"/>
<path fill-rule="evenodd" clip-rule="evenodd" d="M129.5 267.5C129.5 267.5 99.9279 272.763 100.508 276.665C101.085 280.566 103.162 284.5 103.162 284.5L129.5 283.87V267.5Z" fill="#FFAFA7"/>
<path fill-rule="evenodd" clip-rule="evenodd" d="M162.5 285.191L162.271 281.015L99.8903 277.218L78.9687 221.5L10.5 225.247L33.8595 285.5L162.5 285.191Z" fill="#00964B"/>
<path fill-rule="evenodd" clip-rule="evenodd" d="M48.5076 251.774C48.6603 254.531 51.0178 256.643 53.777 256.492C56.534 256.34 58.6468 253.983 58.492 251.224C58.3414 248.467 55.9839 246.355 53.2268 246.508C50.4677 246.66 48.357 249.018 48.5076 251.774Z" fill="white"/>
<path fill-rule="evenodd" clip-rule="evenodd" d="M46.5109 251.885C46.7242 255.745 50.0264 258.702 53.8849 258.489C57.7455 258.278 60.7006 254.976 60.4893 251.115C60.2781 247.255 56.9759 244.298 53.1153 244.511C49.2547 244.722 46.2975 248.024 46.5109 251.885Z" fill="white"/>
<mask id="mask0_2_267" style="mask-type:luminance" maskUnits="userSpaceOnUse" x="0" y="283" width="284" height="32">
<path d="M0.5 283.435H283.479V314.5H0.5V283.435Z" fill="#E2D3F5"/>
</mask>
<g mask="url(#mask0_2_267)">
<path fill-rule="evenodd" clip-rule="evenodd" d="M0.499146 286.688L267.825 283.435L283.479 291.449C283.479 291.449 78.2619 346.357 0.499146 286.688Z" fill="#D3F5DA"/>
</g>
<path fill-rule="evenodd" clip-rule="evenodd" d="M158.532 25.5571C158.532 25.5571 144.954 26.2324 144.5 40.6289C144.5 40.6289 144.728 48.5014 149.028 51.4247C153.327 54.3481 153.1 57.5 153.1 57.5H164.414C164.414 57.5 163.963 53.4505 165.773 51.2003C167.583 48.9502 172.109 44.2275 171.432 37.2547C170.752 30.2798 165.545 24.8818 158.532 25.5571Z" fill="#FFBC7A"/>
<path fill-rule="evenodd" clip-rule="evenodd" d="M152.958 61.1725C156.955 60.9925 160.999 61.4185 164.971 61.1945C165.543 61.1605 165.739 60.2945 165.113 60.1685C161.252 59.3925 156.839 59.8225 152.958 60.2465C152.363 60.3105 152.332 61.2005 152.958 61.1725Z" fill="#6F35A5"/>
<path fill-rule="evenodd" clip-rule="evenodd" d="M154.986 65.1887C156.641 65.0987 158.308 65.0347 159.967 65.0507C161.618 65.0667 163.31 65.3227 164.951 65.2107C165.554 65.1687 165.74 64.3407 165.1 64.1847C161.924 63.4087 158.062 63.8567 154.853 64.2787C154.304 64.3527 154.432 65.2187 154.986 65.1887Z" fill="#6F35A5"/>
<path fill-rule="evenodd" clip-rule="evenodd" d="M155.935 66.7716C157.258 66.8656 158.624 67.2496 159.942 67.2216C160.594 67.2056 160.713 66.2616 160.093 66.0616C158.813 65.6476 157.262 65.7916 155.935 65.8456C155.351 65.8696 155.359 66.7296 155.935 66.7716Z" fill="#6F35A5"/>
<path fill-rule="evenodd" clip-rule="evenodd" d="M156.611 56.8513C156.937 52.7774 155.525 48.2699 154.809 44.2721C154.397 44.4413 153.988 44.6084 153.577 44.7776C154.171 45.7231 155.155 48.4518 156.667 48.3545C158.23 48.2529 158.811 45.5433 159.029 44.4392H157.682C157.984 45.6977 158.021 48.7331 160.054 48.4454C161.776 48.2022 162.936 45.7189 163.462 44.3567C162.999 44.2319 162.531 44.1071 162.063 43.9823C161.023 47.9674 160.524 53.0122 161.564 57.0269C161.752 57.7503 162.931 57.6065 162.909 56.8513C162.781 52.6293 162.174 48.4962 163.462 44.3567C163.741 43.4683 162.396 43.1531 162.063 43.9823C161.871 44.4519 160.759 47.1255 159.706 46.7807C159.44 46.694 159.09 44.3102 159.029 44.0796C158.874 43.4556 157.806 43.407 157.682 44.0796C157.529 44.8982 157.179 47.1276 156.186 46.4613C155.612 46.0764 155.105 44.7036 154.741 44.1156C154.326 43.4429 153.396 43.9188 153.509 44.6211C154.16 48.6189 154.339 53.2766 155.991 57.0163C156.134 57.3378 156.589 57.1348 156.611 56.8513Z" fill="#6F35A5"/>
<path fill-rule="evenodd" clip-rule="evenodd" d="M116.125 52.4773C122.469 50.7608 129.016 49.2815 135.21 47.2046C135.705 47.0384 135.524 46.3996 134.986 46.5135C128.529 47.877 122.19 49.9091 115.853 51.6424C115.233 51.8124 115.497 52.6473 116.125 52.4773Z" fill="#FFBC7A"/>
<path fill-rule="evenodd" clip-rule="evenodd" d="M124.044 34.1924C127.985 34.1184 132.086 34.3264 135.996 33.8644C136.653 33.7864 136.683 32.9464 135.996 32.9004C132.066 32.6264 127.982 33.0344 124.044 33.1524C123.322 33.1744 123.315 34.2064 124.044 34.1924Z" fill="#FFBC7A"/>
<path fill-rule="evenodd" clip-rule="evenodd" d="M142.31 27.5449C137.896 23.6219 133.682 18.7265 128.653 15.622C127.865 15.1357 127.132 16.216 127.704 16.8783C131.561 21.3381 136.973 24.6516 141.51 28.3612C142.069 28.8188 142.869 28.0399 142.31 27.5449Z" fill="#FFBC7A"/>
<path fill-rule="evenodd" clip-rule="evenodd" d="M152.499 22.2087C152.541 20.9043 151.6 19.65 151.011 18.5642C150.315 17.2804 149.713 15.7916 148.755 14.7172C148.27 14.1754 147.291 14.7286 147.54 15.4821C148.004 16.8866 148.96 18.134 149.718 19.3792C150.357 20.4399 150.977 21.9218 152.081 22.4659C152.273 22.5615 152.49 22.45 152.499 22.2087Z" fill="#FFBC7A"/>
<mask id="mask1_2_267" style="mask-type:luminance" maskUnits="userSpaceOnUse" x="159" y="0" width="3" height="21">
<path d="M159.261 0.508003H161.261V20.3924H159.261V0.508003Z" fill="#FFBC7A"/>
</mask>
<g mask="url(#mask1_2_267)">
<path fill-rule="evenodd" clip-rule="evenodd" d="M161.032 19.7931C161.202 13.6987 161.41 7.25276 160.77 1.1915C160.674 0.294026 159.55 0.265289 159.486 1.1915C159.066 7.27708 159.514 13.7075 159.908 19.7931C159.958 20.5844 161.01 20.5999 161.032 19.7931Z" fill="#FFBC7A"/>
</g>
<path fill-rule="evenodd" clip-rule="evenodd" d="M167.448 22.2489C168.866 20.0895 170.342 17.9237 171.419 15.5566C171.801 14.7216 170.743 14.0816 170.23 14.8339C168.772 16.9722 167.679 19.3711 166.562 21.7128C166.272 22.3273 167.075 22.8168 167.448 22.2489Z" fill="#FFBC7A"/>
<path fill-rule="evenodd" clip-rule="evenodd" d="M174.088 26.4599C176.933 25.2672 179.612 23.7169 182.319 22.2451C184.991 20.794 187.984 19.531 190.312 17.5632C190.786 17.1601 190.281 16.3395 189.706 16.5276C186.981 17.4123 184.516 19.1507 182.036 20.5646C179.23 22.1666 176.341 23.6859 173.708 25.5648C173.297 25.8584 173.533 26.6914 174.088 26.4599Z" fill="#FFBC7A"/>
<path fill-rule="evenodd" clip-rule="evenodd" d="M175.945 35.169C178.32 35.921 182.402 35.366 184.245 33.7644C184.887 33.2073 184.203 32.3895 183.44 32.5124C182.173 32.7115 181.004 33.3174 179.742 33.5844C178.486 33.8492 177.201 33.8449 175.945 34.078C175.297 34.1987 175.409 34.9974 175.945 35.169Z" fill="#FFBC7A"/>
<path fill-rule="evenodd" clip-rule="evenodd" d="M177.984 45.672C186.063 47.4796 194.4 49.5459 202.665 50.4935C203.663 50.607 203.798 49.209 202.898 48.9688C194.979 46.8616 186.477 45.7688 178.342 44.5104C177.506 44.382 177.129 45.4803 177.984 45.672Z" fill="#FFBC7A"/>
<path fill-rule="evenodd" clip-rule="evenodd" d="M209.654 87.9117C208.844 89.4943 211.494 130.378 211.494 130.378L231.492 128.706L229.16 139.5L238.932 128.405L258.5 126.13L257.312 86.5L209.654 87.9117Z" fill="#E6FFF0"/>
<path fill-rule="evenodd" clip-rule="evenodd" d="M220.5 105.914L224.735 120.5L230.662 119.355L230.083 116.418L231.764 115.417L234.939 118.529L244.979 116.59L246.28 112.786L243.423 112.153L247.111 110.931L246.31 106.856L243.12 107.133L247.5 105.95L246.504 100.893L236.302 102.863C236.302 102.863 236.96 95.7969 233.948 93.5L231.642 93.9467C231.642 93.9467 232.42 96.1653 232.347 97.5329C232.277 98.9004 230.271 105.211 230.271 105.211L227.138 106.663L226.395 104.606L220.5 105.914Z" fill="#595959"/>
<path fill-rule="evenodd" clip-rule="evenodd" d="M14.5 78.5L17.9065 119.185H92.7319L96.8729 133.5L101.242 117.802L115.5 116.972L108.928 80.5316L14.5 78.5Z" fill="#E6FFF0"/>
<path d="M49.449 91.567V94.143H47.149V107H43.883V103.895C43.0397 104.646 41.974 105.022 40.686 105.022C39.2753 105.022 38.087 104.6 37.121 103.757C36.1703 102.914 35.695 101.756 35.695 100.284C35.695 99.8087 35.7487 99.3793 35.856 98.996H32.015C32.9043 99.5787 33.349 100.483 33.349 101.71C33.349 102.967 32.9197 103.956 32.061 104.677C31.2023 105.382 30.0753 105.735 28.68 105.735C27.5607 105.735 26.564 105.574 25.69 105.252V102.4C26.4107 102.783 27.185 102.975 28.013 102.975C29.531 102.975 30.29 102.346 30.29 101.089C30.29 100.43 30.014 99.916 29.462 99.548C28.91 99.18 28.0897 98.996 27.001 98.996V96.351H37.627C38.4857 95.707 39.5513 95.385 40.824 95.385C41.4373 95.385 41.974 95.4463 42.434 95.569V98.375C41.9127 98.237 41.4603 98.168 41.077 98.168C40.479 98.168 39.9807 98.352 39.582 98.72C39.1833 99.088 38.984 99.5787 38.984 100.192C38.984 100.913 39.1833 101.472 39.582 101.871C39.996 102.254 40.5863 102.446 41.353 102.446C41.9663 102.446 42.5413 102.247 43.078 101.848C43.6147 101.434 43.883 100.92 43.883 100.307V94.143H24.31V91.567H49.449ZM48.0737 91.567H64.6107V94.143H62.2877V107H59.0217V98.996H55.7787C56.668 99.5787 57.1127 100.483 57.1127 101.71C57.1127 102.967 56.6833 103.956 55.8247 104.677C54.966 105.382 53.839 105.735 52.4437 105.735C51.3243 105.735 50.3277 105.574 49.4537 105.252V102.4C50.1743 102.783 50.9487 102.975 51.7767 102.975C53.2947 102.975 54.0537 102.346 54.0537 101.089C54.0537 100.43 53.7777 99.916 53.2257 99.548C52.6737 99.18 51.8533 98.996 50.7647 98.996V96.351H59.0217V94.143H48.0737V91.567ZM82.0953 91.567V94.143H79.7953V107H76.5063V98.352C76.4143 98.3367 76.284 98.329 76.1153 98.329C75.3793 98.329 74.8503 98.513 74.5283 98.881C74.2063 99.249 74.0453 99.8393 74.0453 100.652V102.147H70.7563V100.606C70.7563 99.3027 70.3117 98.651 69.4223 98.651C68.4103 98.651 67.9043 99.41 67.9043 100.928C67.9043 103.182 69.1003 104.309 71.4923 104.309C71.799 104.309 72.1287 104.286 72.4813 104.24V106.885C72.0673 106.946 71.615 106.977 71.1243 106.977C69.1617 106.977 67.5977 106.425 66.4323 105.321C65.267 104.217 64.6843 102.737 64.6843 100.882C64.6843 99.3793 65.0677 98.1833 65.8343 97.294C66.6163 96.4047 67.6973 95.96 69.0773 95.96C69.9973 95.96 70.741 96.1593 71.3083 96.558C71.891 96.9413 72.2513 97.4243 72.3893 98.007C72.8187 96.5197 73.9993 95.776 75.9313 95.776C76.0693 95.776 76.261 95.7913 76.5063 95.822V94.143H63.2123V91.567H82.0953ZM89.7944 98.352V94.143H86.0454V98.513C86.0454 99.8317 86.6127 100.491 87.7474 100.491C88.3454 100.491 88.8361 100.307 89.2194 99.939C89.6027 99.5557 89.7944 99.0267 89.7944 98.352ZM95.3604 91.567V94.143H93.0604V107H89.7944V102.124C89.0584 102.753 88.1614 103.067 87.1034 103.067C85.7387 103.067 84.6731 102.684 83.9064 101.917C83.1551 101.15 82.7794 99.9697 82.7794 98.375V94.143H80.7094V91.567H95.3604ZM93.9838 94.143V91.567H101.827V94.143H99.5268V107H96.2838V94.143H93.9838Z" fill="#595959"/>
<path d="M212.68 165.705L204.6 154.084L207.255 152.238L215.335 163.859L212.68 165.705ZM214.519 155.806L222.68 158.752L219.353 161.065L211.44 157.999L211.134 149.54L214.29 147.347L214.519 155.806Z" fill="#FF7081"/>
<path d="M243.187 174.317L244.705 175.045L243.881 176.762L242.348 176.026L238.237 184.594L236.076 183.557L240.187 174.989L238.041 173.959L233.93 182.527L231.754 181.482L233.46 177.927L231.82 177.14L231.769 177.247C231.376 178.064 230.777 178.594 229.969 178.835C229.172 179.081 228.222 178.939 227.119 178.41C226.373 178.052 225.732 177.606 225.196 177.072L226.152 175.08C226.64 175.741 227.215 176.231 227.879 176.55C228.779 176.981 229.434 176.768 229.846 175.909C230.003 175.583 230.021 175.27 229.899 174.973C229.788 174.681 229.457 174.403 228.905 174.138L228.276 173.836L229.144 172.028L229.619 172.256C230.467 172.663 231.044 172.55 231.348 171.916C231.642 171.303 231.431 170.825 230.716 170.482C230.195 170.232 229.597 170.102 228.923 170.092L229.857 168.146C230.451 168.192 231.09 168.379 231.775 168.708C232.755 169.179 233.404 169.766 233.719 170.471C234.04 171.165 234.014 171.901 233.641 172.677C233.386 173.209 233.03 173.597 232.573 173.843C232.115 174.088 231.597 174.16 231.017 174.058C231.417 174.325 231.709 174.647 231.892 175.025L234.298 176.179L235.865 172.915L234.685 172.349L235.509 170.632L240.873 173.206L240.567 171.212C240.492 170.66 240.204 170.264 239.704 170.024C239.387 169.872 239.035 169.766 238.649 169.707L239.517 167.898C239.919 168.003 240.325 168.154 240.733 168.35C241.352 168.659 241.824 169.024 242.15 169.445C242.476 169.865 242.683 170.404 242.77 171.062L243.187 174.317Z" fill="#FBC580"/>
<path d="M109.511 144.973L108.878 146.291C109.278 145.955 109.737 145.76 110.253 145.706C110.784 145.647 111.331 145.752 111.893 146.021C112.69 146.404 113.198 146.943 113.417 147.639C113.641 148.325 113.532 149.128 113.091 150.047L110.671 155.09L108.433 154.016L110.655 149.387C110.875 148.927 110.935 148.528 110.833 148.19C110.736 147.842 110.493 147.575 110.105 147.389C109.696 147.192 109.276 147.192 108.843 147.386C108.425 147.576 108.062 147.992 107.753 148.636L105.782 152.743L103.544 151.669L107.273 143.899L109.511 144.973Z" fill="#7CABFF"/>
<path d="M83.1724 178.119L83.9006 176.602C84.463 176.583 85.0456 176.718 85.6484 177.007C86.3739 177.355 86.8707 177.826 87.1388 178.42C87.4172 179.019 87.397 179.65 87.0783 180.314C86.6958 181.111 86.0701 181.603 85.2013 181.789C84.3426 181.981 83.3616 181.812 82.258 181.282C81.0421 180.698 80.2202 179.87 79.7922 178.798C79.3793 177.719 79.4254 176.654 79.9305 175.602C80.5042 174.406 81.3369 173.706 82.4284 173.501C83.52 173.295 84.7196 173.494 86.027 174.096L86.165 174.162L86.7019 173.044L81.2763 170.44L82.1001 168.723L91.6638 173.313L90.84 175.03L88.8476 174.073L87.4354 177.016C87.0091 176.673 86.5201 176.369 85.9683 176.105C85.4472 175.854 84.9502 175.685 84.4774 175.596C84.0147 175.513 83.5617 175.553 83.1183 175.717C82.6749 175.882 82.3404 176.199 82.1148 176.669C81.8648 177.19 81.8331 177.74 82.0199 178.32C82.2117 178.89 82.6089 179.32 83.2118 179.609C83.6001 179.795 83.9587 179.873 84.2877 179.842C84.6269 179.817 84.8652 179.661 85.0024 179.375C85.0956 179.18 85.0925 178.99 84.9932 178.804C84.8988 178.608 84.7136 178.444 84.4378 178.312C84.0086 178.106 83.5868 178.042 83.1724 178.119Z" fill="#00964B"/>
<path d="M110.019 236.425L108.622 239.337L109.74 239.874C110.762 240.364 111.513 240.108 111.994 239.107C112.205 238.668 112.236 238.262 112.088 237.889C111.945 237.506 111.644 237.204 111.184 236.984L110.019 236.425ZM108.939 246.258L108.423 241.598L107.702 241.252L105.981 244.839L103.621 243.706L108.578 233.376L112.149 235.09C113.304 235.644 114.081 236.394 114.482 237.341C114.893 238.292 114.863 239.258 114.392 240.239C113.686 241.711 112.57 242.426 111.043 242.384L111.759 247.612L108.939 246.258Z" fill="#7E2E84"/>
<path d="M43.3276 141.778C43.8385 142.023 44.3083 142.079 44.737 141.945C45.1657 141.812 45.4928 141.51 45.7184 141.04C45.9586 140.539 45.9868 140.088 45.8028 139.685C45.6291 139.287 45.2791 138.956 44.7526 138.691C44.2622 138.456 43.7922 138.387 43.3426 138.486C42.9082 138.579 42.5684 138.881 42.3232 139.392C42.0928 139.872 42.0748 140.329 42.2694 140.761C42.4742 141.199 42.8269 141.538 43.3276 141.778ZM51.0086 138.11L47.5908 136.47L46.9215 137.865C47.5693 138.427 47.9854 139.079 48.1698 139.822C48.3591 140.554 48.2674 141.308 47.8947 142.084C47.4338 143.045 46.7137 143.655 45.7345 143.914C44.7655 144.178 43.6886 144.038 42.5038 143.495C41.339 142.936 40.5336 142.191 40.0876 141.26C39.6466 140.32 39.6688 139.344 40.1542 138.332C40.5955 137.412 41.2451 136.832 42.1029 136.59C42.9657 136.337 43.8736 136.371 44.8267 136.69L45.4298 135.433L41.2763 133.44L42.1001 131.723L51.8324 136.394L51.0086 138.11Z" fill="#135216"/>
<path d="M25.4818 183.628L26.2635 184.003C27.51 184.601 28.4054 184.333 28.9497 183.199C29.4401 182.177 29.1079 181.389 27.9533 180.835L27.0338 180.394L25.4818 183.628ZM25.5782 177.376L29.1339 179.082C30.2783 179.632 31.0485 180.397 31.4446 181.379C31.8509 182.366 31.8163 183.355 31.3406 184.346C30.7964 185.481 30.0017 186.18 28.9567 186.446C27.9219 186.716 26.863 186.591 25.7799 186.071L24.5845 185.498L22.981 188.839L20.6208 187.706L25.5782 177.376Z" fill="#FF957E"/>
</g>
<defs>
<clipPath id="clip0_2_267">
<rect width="283" height="314" fill="white" transform="translate(0.5 0.5)"/>
</clipPath>
</defs>
</svg>
